<svg xmlns="http://www.w3.org/2000/svg" version="1.0" width="500.000000pt" height="350.000000pt" viewBox="0 0 725.000000 359.000000" preserveAspectRatio="xMidYMid meet">

                            <g transform="translate(0.000000,359.000000) scale(0.100000,-0.100000)" fill="#e2012d" stroke="none">
                            <path d="M5310 3369 c-124 -5 -292 -13 -375 -17 -132 -8 -107 -9 218 -11 l367 -1 0 -393 0 -393 138 18 c473 61 829 181 1072 361 75 56 193 170 244 237 49 64 120 179 114 185 -2 3 -150 9 -329 15 -374 11 -1121 11 -1449 -1z"></path>
                            <path d="M3505 3092 c-16 -93 -58 -223 -135 -415 -71 -180 -81 -212 -71 -233 10 -23 65 -64 86 -64 6 0 18 37 28 83 21 95 85 260 168 436 33 68 59 127 59 130 0 18 -59 73 -92 86 l-37 15 -6 -38z"></path>
                            <path d="M2925 3104 c-126 -46 -170 -194 -81 -278 17 -16 92 -58 166 -94 191 -91 220 -123 162 -182 -55 -54 -154 -61 -268 -18 -61 22 -136 85 -154 128 -7 16 -17 27 -22 24 -21 -13 -49 -95 -43 -123 9 -41 70 -95 150 -133 60 -28 83 -33 165 -36 85 -3 100 -1 140 20 115 62 148 248 58 323 -17 15 -81 51 -142 82 -182 91 -224 127 -191 163 56 62 262 44 341 -31 38 -35 74 4 74 80 l0 38 -80 27 c-91 30 -208 34 -275 10z"></path>
                            <path d="M3824 3094 c-21 -14 -54 -40 -73 -57 -40 -38 -177 -207 -209 -259 l-23 -37 26 -83 c34 -112 64 -185 92 -230 20 -34 28 -38 63 -38 27 0 48 7 67 24 l27 24 -49 54 c-52 57 -103 136 -129 200 l-16 37 77 81 c83 88 162 148 249 186 62 27 68 46 28 93 -33 40 -76 41 -130 5z"></path>
                            <path d="M4041 3109 c-24 -4 -46 -11 -48 -13 -3 -3 4 -17 15 -33 23 -33 56 -110 102 -242 31 -87 33 -97 23 -146 -7 -29 -29 -98 -51 -154 l-40 -101 51 -15 c86 -26 93 -23 101 38 4 28 18 99 33 157 28 118 46 147 193 331 51 63 97 120 103 127 14 17 -9 40 -49 48 -28 5 -31 3 -54 -47 -45 -96 -174 -284 -190 -274 -13 8 -50 148 -63 240 l-13 90 -34 2 c-19 1 -55 -3 -79 -8z"></path>
                            <path d="M1552 2625 c-426 -192 -778 -423 -1049 -688 -119 -116 -135 -161 -153 -427 -25 -366 -66 -633 -161 -1049 -22 -95 -38 -175 -37 -177 6 -6 204 118 276 173 184 141 303 325 348 536 8 38 28 181 44 316 37 301 67 437 117 539 35 71 46 84 148 165 61 48 166 126 235 172 125 83 356 215 378 215 9 0 12 -36 12 -122 l0 -123 -69 -32 c-177 -83 -371 -248 -479 -406 -50 -72 -146 -247 -139 -253 1 -2 48 19 102 46 125 62 335 132 483 161 l112 22 0 504 c0 277 -1 503 -2 502 -2 0 -77 -33 -166 -74z"></path>
                            <path d="M6335 2456 c-207 -80 -435 -137 -690 -172 l-125 -17 0 -218 0 -218 31 11 c17 6 97 43 177 83 212 105 376 220 559 389 77 71 180 186 166 185 -4 0 -57 -20 -118 -43z"></path>
                            <path d="M2101 2302 c-5 -20 -17 -66 -26 -102 -27 -105 -92 -290 -141 -402 -62 -139 -61 -131 -21 -174 l34 -38 96 12 c53 7 125 12 161 12 l66 0 0 30 c0 44 -20 80 -44 80 -12 0 -63 -9 -115 -20 -52 -11 -97 -18 -99 -15 -6 6 46 146 144 389 l73 179 -20 29 c-11 15 -22 28 -23 28 -2 0 -20 7 -39 15 l-36 15 -10 -38z"></path>
                            <path d="M2770 2320 c-36 -4 -114 -8 -173 -9 -86 -1 -109 -4 -113 -16 -11 -27 5 -61 35 -76 l30 -14 -30 -92 c-29 -91 -30 -93 -69 -103 -44 -12 -52 -33 -20 -52 11 -7 20 -18 20 -25 0 -6 -23 -68 -51 -137 -54 -135 -54 -139 -5 -185 26 -24 27 -24 115 -13 48 7 134 12 190 12 101 0 101 0 101 25 0 13 -5 36 -12 50 -14 31 -45 32 -192 10 -55 -8 -104 -15 -109 -15 -14 0 -3 44 39 158 l37 100 79 12 c44 6 93 8 109 5 28 -6 29 -5 29 28 0 57 -22 71 -101 64 l-68 -6 43 92 42 92 45 7 c24 3 79 7 122 7 68 1 77 3 77 20 0 10 -9 30 -21 45 -22 28 -30 29 -149 16z"></path>
                            <path d="M3233 2316 c-179 -58 -314 -256 -317 -466 -2 -150 47 -227 160 -250 85 -18 123 -3 204 79 46 46 74 84 90 124 17 40 29 57 42 57 14 0 18 8 18 34 0 49 -19 60 -93 53 -81 -7 -188 -37 -195 -55 -3 -9 5 -23 19 -35 19 -15 35 -18 81 -15 55 4 58 3 52 -16 -22 -73 -114 -176 -158 -176 -35 0 -72 50 -87 116 -29 130 28 306 139 426 79 84 152 117 187 82 19 -20 12 -49 -22 -85 -21 -23 -23 -30 -14 -48 6 -11 21 -26 33 -32 19 -10 25 -8 50 22 51 60 49 133 -4 172 -35 26 -126 32 -185 13z"></path>
                            <path d="M3885 2320 c-38 -4 -118 -8 -177 -9 l-108 -1 0 -26 c0 -33 17 -64 36 -64 27 0 26 -27 -2 -115 -24 -73 -32 -87 -54 -92 -14 -3 -33 -10 -44 -15 -17 -9 -16 -11 9 -38 l26 -28 -50 -124 c-28 -69 -51 -132 -51 -140 0 -8 14 -29 32 -47 30 -31 36 -33 78 -27 25 4 109 9 188 13 78 3 145 10 148 14 3 5 0 27 -6 50 l-12 42 -86 -7 c-48 -4 -117 -13 -154 -20 l-68 -13 6 26 c4 14 24 73 45 130 22 58 39 106 39 107 0 7 162 23 188 18 31 -6 32 -6 32 28 0 55 -26 72 -104 66 -75 -6 -74 -13 -12 110 l35 69 53 6 c29 4 84 7 122 7 l68 0 -7 28 c-15 62 -29 66 -170 52z"></path>
                            <path d="M4233 2309 c4 -13 -5 -38 -23 -67 -37 -61 -140 -304 -175 -412 -16 -49 -28 -110 -29 -145 -1 -58 0 -60 34 -77 19 -9 38 -17 41 -18 3 0 9 35 13 78 11 129 79 381 130 477 l21 40 2 -55 c7 -160 51 -458 74 -502 9 -17 66 -38 105 -38 19 0 23 9 33 78 22 150 87 375 137 474 13 26 38 63 54 82 35 40 32 56 -16 82 -35 19 -36 19 -54 -4 -31 -37 -79 -176 -125 -355 -23 -92 -45 -170 -48 -173 -14 -14 -30 152 -32 321 l-2 190 -59 22 c-76 28 -88 28 -81 2z"></path>
                            <path d="M4857 2320 c-87 -22 -153 -74 -182 -143 -14 -33 -14 -40 0 -67 8 -16 24 -34 34 -40 17 -9 23 -4 44 43 32 68 117 154 117 118 0 -8 -102 -282 -178 -479 -15 -38 -15 -46 -2 -70 53 -93 210 -117 348 -52 198 93 307 363 217 540 -30 59 -92 114 -154 135 -55 20 -191 28 -244 15z m236 -64 c39 -16 82 -61 96 -99 15 -39 13 -122 -3 -183 -45 -170 -190 -294 -343 -294 l-55 0 6 31 c11 54 75 208 151 362 82 164 81 144 5 184 -23 12 -19 13 43 13 37 0 82 -6 100 -14z"></path>
                            <path d="M5965 1748 c-101 -58 -338 -170 -402 -190 l-43 -13 0 -178 0 -179 79 71 c97 88 227 224 302 317 83 102 171 224 162 224 -4 0 -48 -24 -98 -52z"></path>
                            <path d="M2285 1531 c-145 -24 -294 -181 -340 -358 -18 -68 -19 -167 -4 -230 31 -122 183 -182 290 -115 73 47 169 175 169 227 0 9 8 14 22 12 17 -1 24 4 26 21 5 36 -24 72 -58 72 -40 0 -162 -27 -205 -45 -32 -13 -35 -17 -25 -35 16 -29 52 -41 105 -33 52 7 55 1 25 -57 -26 -52 -76 -107 -112 -126 -27 -14 -32 -14 -55 1 -81 54 -85 272 -7 416 72 131 196 232 259 209 31 -11 31 -55 0 -86 -31 -31 -28 -66 7 -85 19 -10 26 -7 55 25 28 30 33 43 33 84 0 58 -26 89 -87 103 -42 9 -41 9 -98 0z"></path>
                            <path d="M5168 1530 c-238 -41 -422 -387 -330 -620 26 -66 92 -104 183 -105 62 0 69 2 121 42 58 44 117 123 137 184 9 29 16 36 31 32 17 -5 20 0 20 34 0 21 -5 44 -12 51 -17 17 -69 15 -167 -8 -105 -25 -120 -33 -105 -57 20 -33 60 -45 109 -35 27 6 45 6 45 0 0 -5 -11 -31 -25 -59 -28 -55 -93 -124 -125 -132 -50 -13 -110 88 -110 182 0 59 28 172 56 229 57 117 172 222 244 224 56 2 64 -35 19 -86 -25 -29 -28 -38 -19 -55 18 -35 49 -45 72 -24 56 50 64 128 19 174 -16 16 -40 29 -53 29 -13 0 -32 2 -43 4 -11 2 -41 0 -67 -4z"></path>
                            <path d="M2865 1499 c-85 -64 -192 -179 -250 -272 -24 -38 -38 -49 -74 -60 -54 -15 -66 -37 -21 -37 17 0 30 -3 28 -7 -2 -5 -25 -52 -52 -106 -27 -54 -51 -118 -54 -142 -4 -41 -2 -44 28 -60 38 -20 60 -14 60 16 0 39 31 143 65 217 l34 72 89 0 89 0 -5 -145 -5 -145 36 -15 c20 -8 48 -15 62 -15 l25 0 0 103 c0 168 42 405 91 516 10 24 19 49 19 55 0 14 -83 56 -108 55 -9 0 -35 -14 -57 -30z m-17 -203 l-23 -106 -72 0 c-40 0 -73 3 -73 6 0 26 174 223 187 211 2 -3 -6 -53 -19 -111z"></path>
                            <path d="M3356 1493 c-74 -72 -165 -214 -275 -427 -90 -177 -99 -234 -40 -255 44 -15 49 -14 49 13 0 38 47 173 95 271 44 93 154 267 175 280 14 9 14 2 -19 -149 -19 -91 -41 -274 -41 -353 0 -39 30 -62 90 -70 38 -5 40 -4 40 20 0 82 106 344 188 463 48 71 107 130 99 99 -42 -156 -66 -308 -69 -440 l-3 -109 28 -14 c15 -7 43 -16 61 -19 l33 -5 6 158 c6 171 30 307 73 429 14 39 28 77 31 86 3 12 -9 22 -46 37 -80 35 -93 31 -154 -45 -68 -85 -136 -191 -198 -307 -27 -50 -49 -86 -49 -79 0 22 68 277 89 333 12 30 21 60 21 66 0 14 -90 54 -122 54 -14 0 -40 -16 -62 -37z"></path>
                            <path d="M4400 1516 c0 -7 -24 -62 -54 -122 -97 -195 -186 -447 -186 -526 0 -29 25 -52 70 -63 25 -6 25 -5 28 63 4 111 80 393 134 496 14 27 15 24 22 -80 8 -123 30 -286 53 -387 14 -63 18 -70 49 -83 18 -8 49 -14 69 -14 33 0 35 2 35 34 0 90 73 366 129 490 16 35 44 81 63 102 19 21 33 44 31 51 -7 19 -69 54 -86 47 -33 -12 -130 -294 -168 -487 -7 -38 -16 -62 -20 -55 -17 31 -29 170 -29 331 l0 175 -49 21 c-57 24 -91 27 -91 7z"></path>
                            <path d="M4102 1498 c-48 -61 -161 -374 -182 -509 -9 -58 -10 -85 -1 -111 12 -36 43 -70 74 -81 14 -5 17 0 17 36 1 138 133 546 194 596 26 21 19 39 -24 61 -45 23 -64 25 -78 8z"></path>
                            <path d="M1595 1400 c-112 -22 -200 -52 -290 -97 -92 -46 -146 -86 -226 -170 -60 -62 -146 -180 -137 -188 2 -2 46 9 99 25 152 45 325 71 512 77 l167 6 0 183 c0 169 -1 184 -17 183 -10 0 -58 -9 -108 -19z"></path>
                            <path d="M1235 790 c-274 -30 -478 -171 -611 -424 -20 -38 -30 -65 -23 -60 8 4 35 23 60 41 66 47 182 98 266 117 133 30 353 17 523 -30 100 -28 245 -77 258 -87 9 -7 12 34 12 200 l0 210 -67 12 c-159 27 -293 34 -418 21z"></path>
                            <path d="M4628 563 c-22 -11 -39 -12 -85 -4 -130 25 -218 6 -253 -52 -18 -29 -18 -29 -22 -6 -5 41 -68 64 -168 64 -90 -1 -136 -16 -163 -55 -14 -20 -14 -20 -31 4 -41 63 -156 75 -234 24 -102 -68 -113 -257 -17 -302 41 -20 115 -21 158 -2 60 25 117 111 117 178 0 15 4 16 26 7 33 -12 39 -7 24 20 -14 27 4 67 39 90 l24 16 -6 -49 c-4 -26 -19 -100 -33 -163 -14 -63 -23 -117 -20 -120 2 -3 17 1 32 9 26 12 29 21 50 139 35 190 38 194 109 165 72 -30 51 -102 -34 -113 -23 -3 -44 -10 -47 -15 -14 -22 111 -163 194 -220 62 -43 133 -68 191 -68 82 0 123 25 107 66 -5 14 -8 14 -28 0 -37 -26 -114 -20 -183 13 -43 21 -53 30 -37 30 37 1 78 28 100 64 16 24 62 194 62 225 0 2 21 1 48 -3 62 -8 97 6 110 44 12 34 9 35 -30 14z m-814 -37 c56 -23 73 -113 37 -193 -24 -51 -62 -78 -113 -78 -72 0 -108 72 -84 166 15 56 38 86 81 105 38 17 39 17 79 0z m643 8 c22 -6 22 -6 4 -33 -11 -14 -27 -60 -36 -101 -21 -88 -38 -126 -64 -140 -48 -25 -117 1 -163 63 -42 55 -42 56 2 73 22 9 47 26 55 37 l15 21 0 -20 c0 -38 38 -74 76 -74 41 0 42 5 9 36 -51 47 -18 144 48 144 18 0 42 -3 54 -6z"></path>
                            <path d="M2580 558 c0 -3 -3 -14 -6 -23 -6 -14 -2 -15 30 -9 l37 6 -7 -38 c-4 -22 -11 -50 -17 -64 -6 -14 -11 -36 -12 -50 -1 -14 -5 -48 -9 -76 -7 -42 -5 -53 10 -68 16 -16 31 -18 118 -14 104 5 126 16 126 59 0 17 -3 17 -42 -1 -26 -12 -65 -20 -100 -20 -57 0 -58 1 -58 28 0 15 3 44 6 64 l6 37 82 3 c70 3 81 6 84 22 4 17 -1 18 -77 11 -45 -4 -81 -5 -81 -3 0 2 7 28 16 57 l15 53 67 -7 c37 -4 72 -11 78 -16 7 -6 15 0 23 17 6 15 10 28 9 29 -7 7 -298 9 -298 3z"></path>
                            <path d="M3132 560 c-50 -11 -72 -37 -72 -82 0 -40 7 -50 79 -110 40 -34 39 -71 -1 -101 -38 -29 -79 -15 -93 31 -12 43 -29 35 -33 -16 -3 -37 0 -43 23 -52 62 -23 162 -2 184 38 21 39 13 92 -16 118 -16 13 -43 36 -62 52 -28 24 -33 33 -27 56 9 37 50 52 83 31 17 -11 22 -22 18 -36 -4 -13 -2 -19 8 -19 8 0 18 11 21 25 6 22 12 25 51 25 25 0 45 -5 45 -10 0 -6 -11 -62 -25 -126 -33 -153 -33 -166 3 -162 22 2 28 9 30 33 3 31 40 227 48 258 9 28 79 23 99 -7 33 -50 -8 -106 -78 -106 -31 0 -38 -3 -35 -17 7 -40 121 -23 157 24 29 36 29 113 0 139 -18 17 -37 19 -150 19 -99 0 -129 -3 -129 -13 0 -9 -5 -10 -17 -4 -29 15 -76 20 -111 12z"></path>
                            </g>
                            </svg>