<svg xmlns="http://www.w3.org/2000/svg" version="1.1" xmlns:xlink="http://www.w3.org/1999/xlink" xmlns:svgjs="http://svgjs.dev/svgjs" width="1000" height="623" viewBox="0 0 1000 623"><g transform="matrix(1,0,0,1,-0.6060606060606233,0.2522267206477409)"><svg viewBox="0 0 396 247" data-background-color="#e2012d" preserveAspectRatio="xMidYMid meet" height="623" width="1000" xmlns="http://www.w3.org/2000/svg" xmlns:xlink="http://www.w3.org/1999/xlink"><defs></defs><g id="tight-bounds" transform="matrix(1,0,0,1,0.2400000000000091,-0.09999999999999432)"><svg viewBox="0 0 395.52 247.2" height="247.2" width="395.52"><g><svg></svg></g><g><svg viewBox="0 0 395.52 247.2" height="247.2" width="395.52"><g transform="matrix(26.720083294522716, 0, 0, 26.720083294522716, 1, 24.976802785012794)"><svg xmlns="http://www.w3.org/2000/svg" xmlns:xlink="http://www.w3.org/1999/xlink" xml:space="preserve" style="shape-rendering:geometricPrecision;text-rendering:geometricPrecision;image-rendering:optimizeQuality;" viewBox="0.0000020000000000575113 0.0000027841116459863258 14.727499 7.381952827609914" x="0" y="0" fill-rule="evenodd" clip-rule="evenodd" width="14.727499" height="7.381952827609914" class="icon-none" data-fill-palette-color="accent" id="none"><g fill="#ffffff" data-fill-palette-color="accent"><path class="" d="M1.757 3.091c-0.313 0.444-0.296 1.331-0.417 1.95-0.153 0.784-0.711 1.203-1.34 1.534 0.188-0.771 0.348-1.542 0.412-2.313 0.078-0.953-0.06-0.891 0.767-1.575 1.159-0.961 3.04-1.741 5.848-2.29 2.456-0.406 5.049-0.453 7.701-0.351-0.89 1.809-3.733 1.961-7.203 1.581-1.811 0.02-3.495-0.488-5.768 1.464z m8.33 2.781c-3.895 2.038-7.803-2.284-9.165 0.688 2.104-1.831 5.079 3.183 9.165-0.688z m2.489-2.547c-4.49 2.72-9.502-0.792-10.907 1.859 3.412-1.235 7.765 2.753 10.907-1.859z m0.834-1.478c-3.944 1.761-10.043-1.402-11.565 2.239 3.106-1.808 8.446 1.438 11.565-2.239z" fill="#ffffff" data-fill-palette-color="accent"></path></g></svg></g><rect width="216.21515501487468" height="193.1054706070047" fill="#e2012d" y="27.04726469649765" x="89.65242249256265" data-fill-palette-color="quaternary"></rect><g transform="matrix(1,0,0,1,99.48038408414787,37.08)"><svg viewBox="0 0 196.55923183170424 173.04" height="173.04" width="196.55923183170424"><g><svg viewBox="0 0 196.55923183170424 173.04" height="173.04" width="196.55923183170424"><g><svg viewBox="0 0 247.1956384667418 217.61752364248707" height="173.04" width="196.55923183170424"><g><svg viewBox="0 0 247.1956384667418 217.61752364248707" height="217.61752364248707" width="247.1956384667418"><g><svg viewBox="0 0 247.1956384667418 217.61752364248707" height="217.61752364248707" width="247.1956384667418"><g><svg viewBox="0 0 247.1956384667418 171.9706128" height="171.9706128" width="247.1956384667418"><g transform="matrix(1,0,0,1,0,0)"><svg width="247.1956384667418" viewBox="100 -37.1 193.93000000000006 129.79999999999998" height="171.9706128" data-palette-color="#ffffff"><svg></svg><svg></svg><svg></svg><g class="undefined-text-0" data-fill-palette-color="primary" id="text-0"><path d="M177.47-33.7v0c0.1 0.567 0.177 0.96 0.23 1.18 0.047 0.213 0.07 0.503 0.07 0.87v0c0 1.1-0.24 2.123-0.72 3.07-0.487 0.953-1.147 1.63-1.98 2.03v0c-0.667-0.9-1.483-1.677-2.45-2.33-0.967-0.647-2.023-1.18-3.17-1.6-1.153-0.413-2.347-0.72-3.58-0.92-1.233-0.2-2.433-0.3-3.6-0.3v0c-1.167 0-2.257 0.09-3.27 0.27-1.02 0.187-1.92 0.437-2.7 0.75-0.787 0.32-1.403 0.713-1.85 1.18-0.453 0.467-0.68 1-0.68 1.6v0c0.1 0.733 0.55 1.473 1.35 2.22 0.8 0.753 1.783 1.487 2.95 2.2 1.167 0.72 2.46 1.43 3.88 2.13 1.413 0.7 2.803 1.367 4.17 2v0c1.7 0.8 3.167 1.54 4.4 2.22 1.233 0.687 2.25 1.437 3.05 2.25 0.8 0.82 1.4 1.747 1.8 2.78 0.4 1.033 0.6 2.283 0.6 3.75v0c0 1.7-0.283 3.29-0.85 4.77-0.567 1.487-1.39 2.78-2.47 3.88-1.087 1.1-2.397 1.96-3.93 2.58-1.533 0.613-3.25 0.92-5.15 0.92v0c-1.867 0-3.883-0.283-6.05-0.85-2.167-0.567-4.19-1.34-6.07-2.32-1.887-0.987-3.453-2.123-4.7-3.41-1.253-1.28-1.88-2.637-1.88-4.07v0c0-0.667 0.193-1.517 0.58-2.55 0.38-1.033 1.07-2.117 2.07-3.25v0c0.1 1 0.643 2.183 1.63 3.55 0.98 1.367 2.453 2.633 4.42 3.8v0c1.833 1.067 3.727 1.84 5.68 2.32 1.947 0.487 3.77 0.73 5.47 0.73v0c1.867 0 3.383-0.233 4.55-0.7 1.167-0.467 2.083-1.027 2.75-1.68 0.667-0.647 1.133-1.303 1.4-1.97 0.267-0.667 0.417-1.2 0.45-1.6v0c-0.033-0.667-0.34-1.31-0.92-1.93-0.587-0.613-1.37-1.213-2.35-1.8-0.987-0.58-2.13-1.17-3.43-1.77-1.3-0.6-2.65-1.2-4.05-1.8v0c-2.1-0.933-3.907-1.81-5.42-2.63-1.52-0.813-2.77-1.647-3.75-2.5-0.987-0.847-1.703-1.737-2.15-2.67-0.453-0.933-0.68-2-0.68-3.2v0c0-1.867 0.567-3.633 1.7-5.3 1.133-1.667 2.767-2.933 4.9-3.8v0c1.067-0.467 2.21-0.8 3.43-1 1.213-0.2 2.403-0.3 3.57-0.3v0c2.2 0 4.35 0.3 6.45 0.9 2.1 0.6 4.2 1.367 6.3 2.3zM191.62-15.85v0c2.067-3.067 4.11-5.893 6.13-8.48 2.013-2.58 3.937-4.803 5.77-6.67 1.833-1.867 3.517-3.317 5.05-4.35 1.533-1.033 2.867-1.55 4-1.55v0c0.433 0 0.91 0.167 1.43 0.5 0.513 0.333 0.997 0.767 1.45 1.3 0.447 0.533 0.82 1.107 1.12 1.72 0.3 0.62 0.45 1.213 0.45 1.78v0c-2.067 0.667-4.09 1.54-6.07 2.62-1.987 1.087-3.887 2.337-5.7 3.75-1.82 1.42-3.553 2.997-5.2 4.73-1.653 1.733-3.147 3.583-4.48 5.55v0c0.533 1.367 1.193 2.823 1.98 4.37 0.78 1.553 1.637 3.053 2.57 4.5 0.933 1.453 1.933 2.797 3 4.03 1.067 1.233 2.15 2.217 3.25 2.95v0c-0.167 0.367-0.45 0.717-0.85 1.05-0.4 0.333-0.833 0.643-1.3 0.93-0.467 0.28-0.957 0.503-1.47 0.67-0.52 0.167-0.997 0.25-1.43 0.25v0c-0.867 0-1.667-0.407-2.4-1.22-0.733-0.82-1.473-2.057-2.22-3.71-0.753-1.647-1.537-3.697-2.35-6.15-0.82-2.447-1.73-5.303-2.73-8.57zM184.07 4.05v0c-1.267-0.3-2.317-0.823-3.15-1.57-0.833-0.753-1.6-1.697-2.3-2.83v0c0.3-0.633 0.66-1.467 1.08-2.5 0.413-1.033 0.92-2.31 1.52-3.83 0.6-1.513 1.317-3.33 2.15-5.45 0.833-2.113 1.8-4.587 2.9-7.42v0c0.7-1.8 1.277-3.317 1.73-4.55 0.447-1.233 0.83-2.443 1.15-3.63 0.313-1.18 0.62-2.487 0.92-3.92 0.3-1.433 0.65-3.25 1.05-5.45v0c1.4 0.267 2.677 0.883 3.83 1.85 1.147 0.967 2.137 2.133 2.97 3.5v0c-0.367 0.467-0.79 1.173-1.27 2.12-0.487 0.953-1.03 2.097-1.63 3.43-0.6 1.333-1.267 2.817-2 4.45-0.733 1.633-1.5 3.367-2.3 5.2v0c-1.8 4-3.217 7.657-4.25 10.97-1.033 3.32-1.833 6.53-2.4 9.63zM231.07-17.25v0c2.5-2.733 4.74-5.633 6.72-8.7 1.987-3.067 3.83-6.517 5.53-10.35v0c0.867 0.1 1.7 0.333 2.5 0.7 0.8 0.367 1.433 0.783 1.9 1.25v0c-1.833 2.2-3.49 4.2-4.97 6-1.487 1.8-2.847 3.49-4.08 5.07-1.233 1.587-2.377 3.103-3.43 4.55-1.047 1.453-2.07 2.913-3.07 4.38v0c-0.5 1.7-0.967 3.417-1.4 5.15-0.433 1.733-0.817 3.39-1.15 4.97-0.333 1.587-0.59 3.057-0.77 4.41-0.187 1.347-0.28 2.503-0.28 3.47v0c-0.367 0-0.95-0.073-1.75-0.22-0.8-0.153-1.617-0.33-2.45-0.53-0.833-0.2-1.59-0.4-2.27-0.6-0.687-0.2-1.097-0.367-1.23-0.5v0c0.533-0.9 1.06-2.01 1.58-3.33 0.513-1.313 1.02-2.697 1.52-4.15 0.5-1.447 0.983-2.913 1.45-4.4 0.467-1.48 0.9-2.853 1.3-4.12v0c-0.833-2.6-1.643-5.043-2.43-7.33-0.78-2.28-1.537-4.347-2.27-6.2-0.733-1.847-1.433-3.437-2.1-4.77-0.667-1.333-1.3-2.35-1.9-3.05v0c0.333-0.133 0.84-0.267 1.52-0.4 0.687-0.133 1.437-0.267 2.25-0.4 0.82-0.133 1.653-0.243 2.5-0.33 0.853-0.08 1.613-0.137 2.28-0.17v0c0 0.833 0.073 1.85 0.22 3.05 0.153 1.2 0.357 2.483 0.61 3.85 0.247 1.367 0.537 2.75 0.87 4.15 0.333 1.4 0.667 2.683 1 3.85 0.333 1.167 0.657 2.173 0.97 3.02 0.32 0.853 0.597 1.413 0.83 1.68z" data-fill-palette-color="primary" fill="#ffffff" opacity="1"></path><path d="M119.95 41.5v0c0.833 1.433 1.25 2.817 1.25 4.15v0c0 0.3-0.023 0.577-0.07 0.83-0.053 0.247-0.113 0.503-0.18 0.77v0c-0.567-0.067-1.157-0.117-1.77-0.15-0.62-0.033-1.263-0.05-1.93-0.05v0c-0.8 0-1.607 0.027-2.42 0.08-0.82 0.047-1.73 0.12-2.73 0.22-1 0.1-2.117 0.233-3.35 0.4-1.233 0.167-2.667 0.383-4.3 0.65v0c-0.767-0.267-1.533-0.79-2.3-1.57-0.767-0.787-1.483-1.73-2.15-2.83v0c0.333-0.733 0.75-1.643 1.25-2.73 0.5-1.08 1.083-2.397 1.75-3.95 0.667-1.547 1.41-3.363 2.23-5.45 0.813-2.08 1.687-4.487 2.62-7.22v0c0.6-1.8 1.117-3.383 1.55-4.75 0.433-1.367 0.827-2.693 1.18-3.98 0.347-1.28 0.687-2.62 1.02-4.02 0.333-1.4 0.7-3.017 1.1-4.85v0c1.333 0.267 2.493 0.757 3.48 1.47 0.98 0.72 1.92 1.747 2.82 3.08v0c-0.267 0.433-0.617 1.133-1.05 2.1-0.433 0.967-0.94 2.14-1.52 3.52-0.587 1.387-1.23 2.953-1.93 4.7-0.7 1.753-1.433 3.63-2.2 5.63v0c-0.733 1.967-1.45 3.817-2.15 5.55-0.7 1.733-1.323 3.3-1.87 4.7-0.553 1.4-0.997 2.6-1.33 3.6-0.333 1-0.5 1.75-0.5 2.25v0c0.533-0.033 1.017-0.067 1.45-0.1 0.433-0.033 0.883-0.093 1.35-0.18 0.467-0.08 0.977-0.18 1.53-0.3 0.547-0.113 1.203-0.27 1.97-0.47v0c0.667-0.167 1.283-0.31 1.85-0.43 0.567-0.113 1.127-0.213 1.68-0.3 0.547-0.08 1.113-0.147 1.7-0.2 0.58-0.047 1.237-0.103 1.97-0.17zM146.45 23.05v0c1.1 0 1.96 0.3 2.58 0.9 0.613 0.6 0.92 1.433 0.92 2.5v0c0 0.267-0.023 0.543-0.07 0.83-0.053 0.28-0.113 0.52-0.18 0.72v0c-0.433-0.067-0.917-0.127-1.45-0.18-0.533-0.047-1.167-0.07-1.9-0.07v0c-1.433 0-2.883 0.123-4.35 0.37-1.467 0.253-2.867 0.463-4.2 0.63v0c-0.767 1.767-1.467 3.473-2.1 5.12-0.633 1.653-1.177 3.163-1.63 4.53-0.447 1.367-0.793 2.55-1.04 3.55-0.253 1-0.397 1.75-0.43 2.25v0c2.7-0.567 5.427-1.05 8.18-1.45 2.747-0.4 5.637-0.7 8.67-0.9v0c0.367 0.567 0.677 1.183 0.93 1.85 0.247 0.667 0.37 1.383 0.37 2.15v0c0 0.2 0 0.417 0 0.65 0 0.233-0.033 0.467-0.1 0.7v0c-0.933-0.033-1.917-0.057-2.95-0.07-1.033-0.02-2.383-0.03-4.05-0.03v0c-1.1 0-2.14 0.027-3.12 0.08-0.987 0.047-1.98 0.12-2.98 0.22-1 0.1-2.057 0.233-3.17 0.4-1.12 0.167-2.38 0.367-3.78 0.6v0c-1.533-0.6-3.017-2.067-4.45-4.4v0c0.567-1.2 1.36-3.027 2.38-5.48 1.013-2.447 2.303-5.72 3.87-9.82v0c-1.5-0.467-2.483-1.3-2.95-2.5v0c0.167-0.167 0.65-0.377 1.45-0.63 0.8-0.247 1.783-0.503 2.95-0.77v0c0.5-1.3 0.927-2.433 1.28-3.4 0.347-0.967 0.653-1.877 0.92-2.73 0.267-0.847 0.51-1.68 0.73-2.5 0.213-0.813 0.42-1.703 0.62-2.67v0c-1.167-0.067-2.083-0.393-2.75-0.98-0.667-0.58-1-1.337-1-2.27v0c0-0.267 0.043-0.583 0.13-0.95 0.08-0.367 0.17-0.683 0.27-0.95v0c0.667 0.1 1.307 0.167 1.92 0.2 0.62 0.033 1.43 0.05 2.43 0.05v0c2.1 0 4.067-0.06 5.9-0.18 1.833-0.113 3.493-0.237 4.98-0.37 1.48-0.133 2.753-0.26 3.82-0.38 1.067-0.113 1.883-0.17 2.45-0.17v0c0.767 0 1.45 0.4 2.05 1.2 0.6 0.8 1.05 1.933 1.35 3.4v0c-1.033-0.1-1.873-0.167-2.52-0.2-0.653-0.033-1.23-0.05-1.73-0.05v0c-1.833 0-3.507 0.09-5.02 0.27-1.52 0.187-2.98 0.38-4.38 0.58v0c-0.2 0.3-0.423 0.683-0.67 1.15-0.253 0.467-0.58 1.117-0.98 1.95-0.4 0.833-0.89 1.883-1.47 3.15-0.587 1.267-1.297 2.85-2.13 4.75v0c1.267-0.2 2.46-0.36 3.58-0.48 1.113-0.113 2.053-0.17 2.82-0.17zM183.45 28.45v0c0.867 0 1.55 0.3 2.05 0.9 0.5 0.6 0.75 1.433 0.75 2.5v0c0 0.267-0.017 0.54-0.05 0.82-0.033 0.287-0.083 0.53-0.15 0.73v0c-0.7-0.167-1.467-0.267-2.3-0.3v0c-0.2 1.467-0.733 3.007-1.6 4.62-0.867 1.62-1.917 3.137-3.15 4.55-1.233 1.42-2.583 2.663-4.05 3.73-1.467 1.067-2.917 1.783-4.35 2.15v0c-4.467-0.1-7.723-1.257-9.77-3.47-2.053-2.22-3.08-5.68-3.08-10.38v0c0-3.433 0.633-6.76 1.9-9.98 1.267-3.213 2.95-6.07 5.05-8.57 2.1-2.5 4.51-4.51 7.23-6.03 2.713-1.513 5.537-2.27 8.47-2.27v0c2.3 0 4.093 0.483 5.38 1.45 1.28 0.967 1.92 2.333 1.92 4.1v0c0 1.167-0.273 2.25-0.82 3.25-0.553 1-1.463 2.083-2.73 3.25v0c-0.767-0.233-1.433-0.643-2-1.23-0.567-0.58-0.917-1.253-1.05-2.02v0c1.133-0.833 1.933-1.6 2.4-2.3 0.467-0.7 0.7-1.533 0.7-2.5v0c0-1.533-0.917-2.3-2.75-2.3v0c-1.5 0-3.107 0.56-4.82 1.68-1.72 1.113-3.447 2.72-5.18 4.82v0c-2.467 2.967-4.267 6.023-5.4 9.17-1.133 3.153-1.7 6.697-1.7 10.63v0c0 1.467 0.15 2.8 0.45 4 0.3 1.2 0.7 2.25 1.2 3.15 0.5 0.9 1.093 1.617 1.78 2.15 0.68 0.533 1.42 0.833 2.22 0.9v0c1.067-0.233 2.133-0.777 3.2-1.63 1.067-0.847 2.043-1.847 2.93-3 0.88-1.147 1.63-2.38 2.25-3.7 0.613-1.313 0.987-2.57 1.12-3.77v0c-0.933 0.2-1.823 0.39-2.67 0.57-0.853 0.187-1.663 0.28-2.43 0.28v0c-1 0-1.873-0.25-2.62-0.75-0.753-0.5-1.263-1.183-1.53-2.05v0c0.6-0.333 1.477-0.683 2.63-1.05 1.147-0.367 2.37-0.71 3.67-1.03 1.3-0.313 2.577-0.57 3.83-0.77 1.247-0.2 2.27-0.3 3.07-0.3zM208.9 23.05v0c1.1 0 1.96 0.3 2.58 0.9 0.613 0.6 0.92 1.433 0.92 2.5v0c0 0.267-0.023 0.543-0.07 0.83-0.053 0.28-0.113 0.52-0.18 0.72v0c-0.433-0.067-0.917-0.127-1.45-0.18-0.533-0.047-1.167-0.07-1.9-0.07v0c-1.433 0-2.883 0.123-4.35 0.37-1.467 0.253-2.867 0.463-4.2 0.63v0c-0.767 1.767-1.467 3.473-2.1 5.12-0.633 1.653-1.173 3.163-1.62 4.53-0.453 1.367-0.803 2.55-1.05 3.55-0.253 1-0.397 1.75-0.43 2.25v0c2.7-0.567 5.427-1.05 8.18-1.45 2.747-0.4 5.637-0.7 8.67-0.9v0c0.367 0.567 0.677 1.183 0.93 1.85 0.247 0.667 0.37 1.383 0.37 2.15v0c0 0.2 0 0.417 0 0.65 0 0.233-0.033 0.467-0.1 0.7v0c-0.933-0.033-1.917-0.057-2.95-0.07-1.033-0.02-2.383-0.03-4.05-0.03v0c-1.1 0-2.14 0.027-3.12 0.08-0.987 0.047-1.98 0.12-2.98 0.22-1 0.1-2.057 0.233-3.17 0.4-1.12 0.167-2.38 0.367-3.78 0.6v0c-1.533-0.6-3.017-2.067-4.45-4.4v0c0.567-1.2 1.36-3.027 2.38-5.48 1.013-2.447 2.303-5.72 3.87-9.82v0c-1.5-0.467-2.483-1.3-2.95-2.5v0c0.167-0.167 0.65-0.377 1.45-0.63 0.8-0.247 1.783-0.503 2.95-0.77v0c0.5-1.3 0.927-2.433 1.28-3.4 0.347-0.967 0.653-1.877 0.92-2.73 0.267-0.847 0.51-1.68 0.73-2.5 0.213-0.813 0.42-1.703 0.62-2.67v0c-1.167-0.067-2.083-0.393-2.75-0.98-0.667-0.58-1-1.337-1-2.27v0c0-0.267 0.043-0.583 0.13-0.95 0.08-0.367 0.17-0.683 0.27-0.95v0c0.667 0.1 1.31 0.167 1.93 0.2 0.613 0.033 1.42 0.05 2.42 0.05v0c2.1 0 4.067-0.06 5.9-0.18 1.833-0.113 3.493-0.237 4.98-0.37 1.48-0.133 2.753-0.26 3.82-0.38 1.067-0.113 1.883-0.17 2.45-0.17v0c0.767 0 1.45 0.4 2.05 1.2 0.6 0.8 1.05 1.933 1.35 3.4v0c-1.033-0.1-1.873-0.167-2.52-0.2-0.653-0.033-1.23-0.05-1.73-0.05v0c-1.833 0-3.507 0.09-5.02 0.27-1.52 0.187-2.98 0.38-4.38 0.58v0c-0.2 0.3-0.423 0.683-0.67 1.15-0.253 0.467-0.58 1.117-0.98 1.95-0.4 0.833-0.89 1.883-1.47 3.15-0.587 1.267-1.297 2.85-2.13 4.75v0c1.267-0.2 2.46-0.36 3.58-0.48 1.113-0.113 2.053-0.17 2.82-0.17zM223.15 48.15v0c-1.9-0.567-3.183-1.107-3.85-1.62-0.667-0.52-1-1.23-1-2.13v0c0-1 0.233-2.407 0.7-4.22 0.467-1.82 1.077-3.847 1.83-6.08 0.747-2.233 1.603-4.567 2.57-7 0.967-2.433 1.95-4.767 2.95-7 1-2.233 1.977-4.277 2.93-6.13 0.947-1.847 1.787-3.287 2.52-4.32v0l-0.35-2.1c0.467 0 1.117 0.117 1.95 0.35 0.833 0.233 1.677 0.517 2.53 0.85 0.847 0.333 1.597 0.673 2.25 1.02 0.647 0.353 1.003 0.647 1.07 0.88v0c-0.167 0.8-0.3 2.007-0.4 3.62-0.1 1.62-0.15 3.347-0.15 5.18v0c0 3.633 0.143 7.19 0.43 10.67 0.28 3.487 0.937 7.03 1.97 10.63v0c0.533-2.667 1.11-5.327 1.73-7.98 0.613-2.647 1.253-5.18 1.92-7.6 0.667-2.413 1.333-4.653 2-6.72 0.667-2.067 1.31-3.877 1.93-5.43 0.613-1.547 1.187-2.763 1.72-3.65 0.533-0.88 1.017-1.353 1.45-1.42v0c0.367 0.067 0.767 0.207 1.2 0.42 0.433 0.22 0.85 0.48 1.25 0.78 0.4 0.3 0.767 0.633 1.1 1 0.333 0.367 0.6 0.733 0.8 1.1v0c-1.067 0.433-2.123 1.45-3.17 3.05-1.053 1.6-2.053 3.54-3 5.82-0.953 2.287-1.837 4.763-2.65 7.43-0.82 2.667-1.537 5.29-2.15 7.87-0.62 2.587-1.103 4.98-1.45 7.18-0.353 2.2-0.547 3.967-0.58 5.3v0c0 0.067 0.017 0.117 0.05 0.15v0c-0.1 0.033-0.207 0.05-0.32 0.05-0.12 0-0.23 0-0.33 0v0c-1.533 0-2.89-0.19-4.07-0.57-1.187-0.387-1.963-0.93-2.33-1.63v0c-0.7-2.8-1.283-5.5-1.75-8.1-0.467-2.6-0.857-5.2-1.17-7.8-0.32-2.6-0.57-5.227-0.75-7.88-0.187-2.647-0.33-5.42-0.43-8.32v0c-0.633 1-1.3 2.307-2 3.92-0.7 1.62-1.383 3.397-2.05 5.33-0.667 1.933-1.307 3.967-1.92 6.1-0.62 2.133-1.163 4.217-1.63 6.25-0.467 2.033-0.833 3.957-1.1 5.77-0.267 1.82-0.4 3.397-0.4 4.73v0c0 0.7 0.01 1.2 0.03 1.5 0.013 0.3 0.053 0.55 0.12 0.75zM256.2 41.75v0c0.5-1.1 1.1-2.517 1.8-4.25 0.7-1.733 1.433-3.61 2.2-5.63 0.767-2.013 1.55-4.08 2.35-6.2 0.8-2.113 1.55-4.12 2.25-6.02 0.7-1.9 1.307-3.6 1.82-5.1 0.52-1.5 0.897-2.65 1.13-3.45v0c-2.1 0.867-3.9 2.183-5.4 3.95-1.5 1.767-2.633 3.983-3.4 6.65v0c-0.767-0.267-1.467-0.743-2.1-1.43-0.633-0.68-1.05-1.537-1.25-2.57v0c0.333-1.533 0.96-2.933 1.88-4.2 0.913-1.267 2.07-2.35 3.47-3.25 1.4-0.9 3.017-1.593 4.85-2.08 1.833-0.48 3.8-0.72 5.9-0.72v0c2.667 0 5.117 0.39 7.35 1.17 2.233 0.787 4.15 1.88 5.75 3.28 1.6 1.4 2.85 3.083 3.75 5.05 0.9 1.967 1.35 4.15 1.35 6.55v0c0 3.267-0.6 6.383-1.8 9.35-1.2 2.967-2.823 5.583-4.87 7.85-2.053 2.267-4.43 4.077-7.13 5.43-2.7 1.347-5.533 2.02-8.5 2.02v0c-2.733 0-5.073-0.54-7.02-1.62-1.953-1.087-3.413-2.68-4.38-4.78zM273.85 9.95v0c-1.667 0-3.25 0.233-4.75 0.7v0c1.467 0.533 2.683 1.093 3.65 1.68 0.967 0.58 1.633 1.037 2 1.37v0c-0.267 0.367-0.657 1.017-1.17 1.95-0.52 0.933-1.123 2.067-1.81 3.4-0.68 1.333-1.403 2.79-2.17 4.37-0.767 1.587-1.517 3.213-2.25 4.88v0c-1.9 4.233-3.273 7.567-4.12 10-0.853 2.433-1.28 4.117-1.28 5.05v0c0.467 0.167 1.033 0.283 1.7 0.35 0.667 0.067 1.383 0.1 2.15 0.1v0c2.7 0 5.26-0.627 7.68-1.88 2.413-1.247 4.53-2.92 6.35-5.02 1.813-2.1 3.243-4.543 4.29-7.33 1.053-2.78 1.58-5.703 1.58-8.77v0c0-3.433-1.067-6.1-3.2-8-2.133-1.9-5.017-2.85-8.65-2.85z" data-fill-palette-color="primary" fill="#ffffff" opacity="1"></path><path d="M128.38 72.8v0c0.867 0 1.55 0.3 2.05 0.9 0.5 0.6 0.75 1.433 0.75 2.5v0c0 0.267-0.017 0.54-0.05 0.82-0.033 0.287-0.083 0.53-0.15 0.73v0c-0.7-0.167-1.467-0.267-2.3-0.3v0c-0.2 1.467-0.733 3.007-1.6 4.62-0.867 1.62-1.917 3.137-3.15 4.55-1.233 1.42-2.583 2.663-4.05 3.73-1.467 1.067-2.917 1.783-4.35 2.15v0c-4.467-0.1-7.723-1.257-9.77-3.47-2.053-2.22-3.08-5.68-3.08-10.38v0c0-3.433 0.633-6.76 1.9-9.98 1.267-3.213 2.95-6.07 5.05-8.57 2.1-2.5 4.51-4.51 7.23-6.03 2.713-1.513 5.537-2.27 8.47-2.27v0c2.3 0 4.093 0.483 5.38 1.45 1.28 0.967 1.92 2.333 1.92 4.1v0c0 1.167-0.273 2.25-0.82 3.25-0.553 1-1.463 2.083-2.73 3.25v0c-0.767-0.233-1.433-0.643-2-1.23-0.567-0.58-0.917-1.253-1.05-2.02v0c1.133-0.833 1.933-1.6 2.4-2.3 0.467-0.7 0.7-1.533 0.7-2.5v0c0-1.533-0.917-2.3-2.75-2.3v0c-1.5 0-3.107 0.56-4.82 1.68-1.72 1.113-3.447 2.72-5.18 4.82v0c-2.467 2.967-4.267 6.023-5.4 9.17-1.133 3.153-1.7 6.697-1.7 10.63v0c0 1.467 0.15 2.8 0.45 4 0.3 1.2 0.7 2.25 1.2 3.15 0.5 0.9 1.09 1.617 1.77 2.15 0.687 0.533 1.43 0.833 2.23 0.9v0c1.067-0.233 2.133-0.777 3.2-1.63 1.067-0.847 2.043-1.847 2.93-3 0.88-1.147 1.63-2.38 2.25-3.7 0.613-1.313 0.987-2.57 1.12-3.77v0c-0.933 0.2-1.823 0.39-2.67 0.57-0.853 0.187-1.663 0.28-2.43 0.28v0c-1 0-1.873-0.25-2.62-0.75-0.753-0.5-1.263-1.183-1.53-2.05v0c0.6-0.333 1.477-0.683 2.63-1.05 1.147-0.367 2.37-0.71 3.67-1.03 1.3-0.313 2.577-0.57 3.83-0.77 1.247-0.2 2.27-0.3 3.07-0.3zM135.43 92.5v0c-1.6-0.467-2.707-0.933-3.32-1.4-0.62-0.467-0.93-1.05-0.93-1.75v0c0-0.533 0.15-1.283 0.45-2.25 0.3-0.967 0.743-2.11 1.33-3.43 0.58-1.313 1.277-2.77 2.09-4.37 0.82-1.6 1.747-3.317 2.78-5.15v0c-0.867-0.033-1.64-0.06-2.32-0.08-0.687-0.013-1.247-0.02-1.68-0.02v0c0.2-0.5 0.767-0.933 1.7-1.3 0.933-0.367 2.167-0.683 3.7-0.95v0c1.3-2.167 2.69-4.233 4.17-6.2 1.487-1.967 2.98-3.777 4.48-5.43 1.5-1.647 3-3.097 4.5-4.35 1.5-1.247 2.933-2.237 4.3-2.97v0c0.033-0.233 0.06-0.433 0.08-0.6 0.013-0.167 0.02-0.283 0.02-0.35v0c0.467 0 1.093 0.117 1.88 0.35 0.78 0.233 1.547 0.517 2.3 0.85 0.747 0.333 1.413 0.673 2 1.02 0.58 0.353 0.903 0.647 0.97 0.88v0c-1.1 1.933-2.183 4.823-3.25 8.67-1.067 3.853-1.95 8.463-2.65 13.83v0c-0.167 1.333-0.307 2.85-0.42 4.55-0.12 1.7-0.18 3.6-0.18 5.7v0c0 0.733 0 1.483 0 2.25 0 0.767 0.033 1.567 0.1 2.4v0c-0.067 0.033-0.133 0.05-0.2 0.05-0.067 0-0.2 0-0.4 0v0c-0.467 0-1.01-0.073-1.63-0.22-0.613-0.153-1.21-0.337-1.79-0.55-0.587-0.22-1.087-0.463-1.5-0.73-0.42-0.267-0.68-0.5-0.78-0.7v0c-0.033-0.433-0.05-0.857-0.05-1.27 0-0.42 0-0.863 0-1.33v0c0-2.067 0.077-4.167 0.23-6.3 0.147-2.133 0.403-4.333 0.77-6.6v0c-0.467-0.033-1.083-0.077-1.85-0.13-0.767-0.047-1.623-0.087-2.57-0.12-0.953-0.033-1.97-0.077-3.05-0.13-1.087-0.047-2.147-0.087-3.18-0.12v0c-0.8 1.5-1.55 2.99-2.25 4.47-0.7 1.487-1.3 2.98-1.8 4.48v0c-0.567 1.6-1.023 3.2-1.37 4.8-0.353 1.6-0.58 3.1-0.68 4.5zM154.73 62.45v0c0.133-0.467 0.293-1.11 0.48-1.93 0.18-0.813 0.353-1.67 0.52-2.57v0c-0.833 0.3-1.757 0.85-2.77 1.65-1.02 0.8-2.073 1.79-3.16 2.97-1.08 1.187-2.177 2.52-3.29 4-1.12 1.487-2.197 3.063-3.23 4.73v0c2.8-0.233 5.983-0.383 9.55-0.45v0c0.267-1.4 0.56-2.793 0.88-4.18 0.313-1.38 0.653-2.787 1.02-4.22zM185.93 92.4v0c-0.067 0.033-0.133 0.05-0.2 0.05-0.067 0-0.2 0-0.4 0v0c-0.467 0-1.01-0.073-1.63-0.22-0.613-0.153-1.213-0.337-1.8-0.55-0.58-0.22-1.08-0.463-1.5-0.73-0.413-0.267-0.67-0.5-0.77-0.7v0c-0.033-0.467-0.05-0.95-0.05-1.45 0-0.5 0-0.983 0-1.45v0c0-3.733 0.273-7.633 0.82-11.7 0.553-4.067 1.463-8.467 2.73-13.2v0c0.133-0.467 0.273-1.06 0.42-1.78 0.153-0.713 0.313-1.487 0.48-2.32v0c-0.8 0.633-1.75 1.64-2.85 3.02-1.1 1.387-2.26 3.02-3.48 4.9-1.213 1.887-2.43 3.953-3.65 6.2-1.213 2.253-2.32 4.537-3.32 6.85-1 2.32-1.86 4.613-2.58 6.88-0.713 2.267-1.153 4.367-1.32 6.3v0c-1.6-0.467-2.707-0.933-3.32-1.4-0.62-0.467-0.93-1.033-0.93-1.7v0c0-0.6 0.183-1.45 0.55-2.55 0.367-1.1 0.883-2.4 1.55-3.9 0.667-1.5 1.483-3.177 2.45-5.03 0.967-1.847 2.033-3.837 3.2-5.97v0c1.333-2.433 2.643-4.717 3.93-6.85 1.28-2.133 2.537-4.067 3.77-5.8 1.233-1.733 2.44-3.233 3.62-4.5 1.187-1.267 2.363-2.233 3.53-2.9v0c0.467 0 1.09 0.117 1.87 0.35 0.787 0.233 1.553 0.517 2.3 0.85 0.753 0.333 1.42 0.673 2 1.02 0.587 0.353 0.913 0.647 0.98 0.88v0c-0.467 0.933-1.017 2.333-1.65 4.2-0.633 1.867-1.273 3.983-1.92 6.35-0.653 2.367-1.273 4.873-1.86 7.52-0.58 2.653-1.037 5.197-1.37 7.63v0c0.767-1.833 1.657-3.743 2.67-5.73 1.02-1.98 2.097-3.947 3.23-5.9 1.133-1.947 2.293-3.837 3.48-5.67 1.18-1.833 2.337-3.51 3.47-5.03 1.133-1.513 2.19-2.837 3.17-3.97 0.987-1.133 1.863-1.967 2.63-2.5v0c0.467 0 1.09 0.117 1.87 0.35 0.787 0.233 1.553 0.517 2.3 0.85 0.753 0.333 1.42 0.673 2 1.02 0.587 0.353 0.913 0.647 0.98 0.88v0c-1.067 1.9-2 4.217-2.8 6.95-0.8 2.733-1.473 5.6-2.02 8.6-0.553 3-0.97 5.977-1.25 8.93-0.287 2.947-0.43 5.587-0.43 7.92v0c0 0.767 0 1.567 0 2.4 0 0.833 0.033 1.7 0.1 2.6v0c-0.467 0-1.023-0.057-1.67-0.17-0.653-0.12-1.29-0.28-1.91-0.48-0.613-0.2-1.17-0.423-1.67-0.67-0.5-0.253-0.85-0.53-1.05-0.83v0c-0.033-0.467-0.05-0.95-0.05-1.45 0-0.5 0-0.983 0-1.45v0c0-3.733 0.277-7.633 0.83-11.7 0.547-4.067 1.453-8.467 2.72-13.2v0c0.133-0.467 0.283-1.1 0.45-1.9 0.167-0.8 0.333-1.633 0.5-2.5v0c-0.933 0.467-1.99 1.357-3.17 2.67-1.187 1.32-2.39 2.92-3.61 4.8-1.213 1.887-2.413 3.98-3.6 6.28-1.18 2.3-2.243 4.64-3.19 7.02-0.953 2.387-1.757 4.753-2.41 7.1-0.647 2.353-1.037 4.513-1.17 6.48zM213.58 85.85v0c0-1.2 0.19-2.76 0.57-4.68 0.387-1.913 0.887-3.98 1.5-6.2 0.62-2.213 1.33-4.48 2.13-6.8 0.8-2.313 1.617-4.487 2.45-6.52 0.833-2.033 1.65-3.817 2.45-5.35 0.8-1.533 1.517-2.633 2.15-3.3v0c0.333 0.033 0.773 0.157 1.32 0.37 0.553 0.22 1.113 0.48 1.68 0.78 0.567 0.3 1.083 0.623 1.55 0.97 0.467 0.353 0.767 0.68 0.9 0.98v0c-0.967 0.867-1.927 2.173-2.88 3.92-0.947 1.753-1.863 3.747-2.75 5.98-0.88 2.233-1.703 4.59-2.47 7.07-0.767 2.487-1.433 4.897-2 7.23-0.567 2.333-1.01 4.5-1.33 6.5-0.313 2-0.47 3.617-0.47 4.85v0c0 0.567 0.05 0.917 0.15 1.05v0c-0.733-0.033-1.267-0.157-1.6-0.37-0.333-0.22-0.593-0.453-0.78-0.7-0.18-0.253-0.347-0.503-0.5-0.75-0.147-0.253-0.37-0.447-0.67-0.58v0c-0.233-0.1-0.433-0.333-0.6-0.7-0.167-0.367-0.31-0.777-0.43-1.23-0.113-0.447-0.203-0.903-0.27-1.37-0.067-0.467-0.1-0.85-0.1-1.15zM232.28 92.5v0c-1.9-0.567-3.183-1.107-3.85-1.62-0.667-0.52-1-1.23-1-2.13v0c0-1 0.233-2.407 0.7-4.22 0.467-1.82 1.073-3.847 1.82-6.08 0.753-2.233 1.613-4.567 2.58-7 0.967-2.433 1.95-4.767 2.95-7 1-2.233 1.973-4.277 2.92-6.13 0.953-1.847 1.797-3.287 2.53-4.32v0l-0.35-2.1c0.467 0 1.117 0.117 1.95 0.35 0.833 0.233 1.673 0.517 2.52 0.85 0.853 0.333 1.603 0.673 2.25 1.02 0.653 0.353 1.013 0.647 1.08 0.88v0c-0.167 0.8-0.3 2.007-0.4 3.62-0.1 1.62-0.15 3.347-0.15 5.18v0c0 3.633 0.143 7.19 0.43 10.67 0.28 3.487 0.937 7.03 1.97 10.63v0c0.533-2.667 1.107-5.327 1.72-7.98 0.62-2.647 1.263-5.18 1.93-7.6 0.667-2.413 1.333-4.653 2-6.72 0.667-2.067 1.307-3.877 1.92-5.43 0.62-1.547 1.197-2.763 1.73-3.65 0.533-0.88 1.017-1.353 1.45-1.42v0c0.367 0.067 0.767 0.207 1.2 0.42 0.433 0.22 0.85 0.48 1.25 0.78 0.4 0.3 0.767 0.633 1.1 1 0.333 0.367 0.6 0.733 0.8 1.1v0c-1.067 0.433-2.127 1.45-3.18 3.05-1.047 1.6-2.047 3.54-3 5.82-0.947 2.287-1.827 4.763-2.64 7.43-0.82 2.667-1.54 5.29-2.16 7.87-0.613 2.587-1.097 4.98-1.45 7.18-0.347 2.2-0.537 3.967-0.57 5.3v0c0 0.067 0.017 0.117 0.05 0.15v0c-0.1 0.033-0.21 0.05-0.33 0.05-0.113 0-0.22 0-0.32 0v0c-1.533 0-2.893-0.19-4.08-0.57-1.18-0.387-1.953-0.93-2.32-1.63v0c-0.7-2.8-1.283-5.5-1.75-8.1-0.467-2.6-0.86-5.2-1.18-7.8-0.313-2.6-0.563-5.227-0.75-7.88-0.18-2.647-0.32-5.42-0.42-8.32v0c-0.633 1-1.3 2.307-2 3.92-0.7 1.62-1.383 3.397-2.05 5.33-0.667 1.933-1.307 3.967-1.92 6.1-0.62 2.133-1.163 4.217-1.63 6.25-0.467 2.033-0.833 3.957-1.1 5.77-0.267 1.82-0.4 3.397-0.4 4.73v0c0 0.7 0.007 1.2 0.02 1.5 0.02 0.3 0.063 0.55 0.13 0.75zM289.68 72.8v0c0.867 0 1.55 0.3 2.05 0.9 0.5 0.6 0.75 1.433 0.75 2.5v0c0 0.267-0.017 0.54-0.05 0.82-0.033 0.287-0.083 0.53-0.15 0.73v0c-0.7-0.167-1.467-0.267-2.3-0.3v0c-0.2 1.467-0.733 3.007-1.6 4.62-0.867 1.62-1.917 3.137-3.15 4.55-1.233 1.42-2.583 2.663-4.05 3.73-1.467 1.067-2.917 1.783-4.35 2.15v0c-4.467-0.1-7.727-1.257-9.78-3.47-2.047-2.22-3.07-5.68-3.07-10.38v0c0-3.433 0.633-6.76 1.9-9.98 1.267-3.213 2.95-6.07 5.05-8.57 2.1-2.5 4.507-4.51 7.22-6.03 2.72-1.513 5.547-2.27 8.48-2.27v0c2.3 0 4.093 0.483 5.38 1.45 1.28 0.967 1.92 2.333 1.92 4.1v0c0 1.167-0.277 2.25-0.83 3.25-0.547 1-1.453 2.083-2.72 3.25v0c-0.767-0.233-1.433-0.643-2-1.23-0.567-0.58-0.917-1.253-1.05-2.02v0c1.133-0.833 1.933-1.6 2.4-2.3 0.467-0.7 0.7-1.533 0.7-2.5v0c0-1.533-0.917-2.3-2.75-2.3v0c-1.5 0-3.11 0.56-4.83 1.68-1.713 1.113-3.437 2.72-5.17 4.82v0c-2.467 2.967-4.267 6.023-5.4 9.17-1.133 3.153-1.7 6.697-1.7 10.63v0c0 1.467 0.15 2.8 0.45 4 0.3 1.2 0.7 2.25 1.2 3.15 0.5 0.9 1.09 1.617 1.77 2.15 0.687 0.533 1.43 0.833 2.23 0.9v0c1.067-0.233 2.133-0.777 3.2-1.63 1.067-0.847 2.04-1.847 2.92-3 0.887-1.147 1.637-2.38 2.25-3.7 0.62-1.313 0.997-2.57 1.13-3.77v0c-0.933 0.2-1.827 0.39-2.68 0.57-0.847 0.187-1.653 0.28-2.42 0.28v0c-1 0-1.873-0.25-2.62-0.75-0.753-0.5-1.263-1.183-1.53-2.05v0c0.6-0.333 1.473-0.683 2.62-1.05 1.153-0.367 2.38-0.71 3.68-1.03 1.3-0.313 2.573-0.57 3.82-0.77 1.253-0.2 2.28-0.3 3.08-0.3z" data-fill-palette-color="primary" fill="#ffffff" opacity="1"></path></g></svg></g></svg></g><g transform="matrix(1,0,0,1,49.43984890729304,184.58792100682348)"><svg viewBox="0 0 148.31594065215572 33.029602635663586" height="33.029602635663586" width="148.31594065215572"><g transform="matrix(1,0,0,1,0,0)"><svg width="148.31594065215572" viewBox="3.5 -37 222.04 49.45" height="33.029602635663586" data-palette-color="#ffffff"><path d="M33.7-35.1Q34-35.1 34.27-34.88 34.55-34.65 34.7-34.35L34.7-34.35Q33.2-30.55 33.1-29.65L33.1-29.65 32.6-29.55Q32.4-30.35 32.1-30.78 31.8-31.2 31-31.3L31-31.3Q21.55-32.55 17.6-32.55L17.6-32.55Q16.5-32.55 16.2-32.4 15.9-32.25 15.65-31.7L15.65-31.7Q14.8-29.6 12.6-20.25L12.6-20.25 17.8-20.25Q23.1-20.25 25.4-20.43 27.7-20.6 29.5-21.15L29.5-21.15 29.75-20.9Q29.35-19.8 29.25-19.13 29.15-18.45 29.05-18.1L29.05-18.1Q28.9-17.5 28.68-17.35 28.45-17.2 27.9-17.2L27.9-17.2Q23.8-17.2 12-17.4L12-17.4Q10-8.05 10-5.3L10-5.3Q10-3.45 11.13-2.88 12.25-2.3 15.2-2.3L15.2-2.3Q19.95-2.3 24.58-3.33 29.2-4.35 31.9-6.9L31.9-6.9Q32.25-6.8 32.25-6.65L32.25-6.65Q31.95-6.15 31.83-5.8 31.7-5.45 31.55-4.6L31.55-4.6Q31.2-2.75 30.7-1.88 30.2-1 28.95-0.75L28.95-0.75Q25.1 0 22.03 0.33 18.95 0.65 15.3 0.65L15.3 0.65Q11.6 0.65 9.47 0.23 7.35-0.2 6.33-1.35 5.3-2.5 5.3-4.75L5.3-4.75Q5.3-8.05 7.55-17.45L7.55-17.45 6.85-17.45Q6.2-17.45 6.3-17.85L6.3-17.85Q6.35-18.3 6.95-19.28 7.55-20.25 7.95-20.25L7.95-20.25 8.2-20.25Q9.35-25.1 9.88-27.65 10.4-30.2 10.4-31.4L10.4-31.4Q10.4-32.1 10.1-32.27 9.8-32.45 8.8-32.45L8.8-32.45Q6.25-32.45 3.65-31.65L3.65-31.65 3.5-31.7Q3.55-32.4 3.83-33.7 4.1-35 4.35-35.4L4.35-35.4Q9.05-35.05 13.85-35.05L13.85-35.05 33.7-35.1ZM59.45 0.6Q57.1 0.6 54.92 0.1 52.75-0.4 51.32-1.15 49.9-1.9 49.55-2.6L49.55-2.6Q49.8-3.85 50.07-6.18 50.35-8.5 50.4-9.6L50.4-9.6Q50.95-10.05 51.8-10.15L51.8-10.15Q52-6.15 53.85-4.03 55.7-1.9 59.2-1.9L59.2-1.9Q62.85-1.9 65.02-4.05 67.2-6.2 67.2-9.55L67.2-9.55Q67.2-11.2 66.62-12.38 66.05-13.55 65.07-14.43 64.09-15.3 62.3-16.5L62.3-16.5Q59.8-18.25 58.27-19.58 56.75-20.9 55.85-22.58 54.95-24.25 54.95-26.4L54.95-26.4Q54.95-29.15 56.47-31.18 58-33.2 60.62-34.27 63.25-35.35 66.5-35.35L66.5-35.35Q69.65-35.35 72.25-34.43 74.84-33.5 75.55-32.45L75.55-32.45Q73.55-27.95 73.2-26.4L73.2-26.4Q72.45-26.1 71.4-26.1L71.4-26.1Q72.05-27.85 72.05-29.15L72.05-29.15Q72.05-31.15 70.52-32.2 69-33.25 66.55-33.25L66.55-33.25Q63.05-33.25 61.37-31.35 59.7-29.45 59.7-26.95L59.7-26.95Q59.7-24.55 61.2-22.9 62.7-21.25 65.09-19.8L65.09-19.8Q67.7-18.2 69.2-17.03 70.7-15.85 71.72-14.1 72.75-12.35 72.75-9.9L72.75-9.9Q72.75-6.65 70.95-4.28 69.15-1.9 66.12-0.65 63.1 0.6 59.45 0.6L59.45 0.6ZM81.24 0.35Q80.24 0.35 79.92 0.08 79.59-0.2 79.59-0.85L79.59-0.85Q79.59-2 80.42-6.13 81.24-10.25 82.89-17.75L82.89-17.75Q83.94-22.5 84.79-26.68 85.64-30.85 85.64-31.65L85.64-31.65Q85.64-32.05 84.79-32.05L84.79-32.05Q84.29-32.05 82.39-31.75L82.39-31.75Q79.69-31.3 78.39-31.3L78.39-31.3Q77.24-31.3 76.79-31.58 76.34-31.85 76.34-32.55L76.34-32.55Q76.34-33.2 76.62-34.18 76.89-35.15 77.19-35.6L77.19-35.6Q78.99-34.9 81.74-34.9L81.74-34.9Q84.09-34.9 88.49-35.35L88.49-35.35Q89.09-35.4 91.64-35.6 94.19-35.8 96.19-35.8L96.19-35.8Q102.09-35.8 105.02-33.7 107.94-31.6 107.94-27.05L107.94-27.05Q107.94-23.25 106.07-20.35 104.19-17.45 100.99-15.88 97.79-14.3 93.99-14.3L93.99-14.3Q91.29-14.3 90.22-15 89.14-15.7 89.14-16.65L89.14-16.65Q89.14-17.1 89.37-17.53 89.59-17.95 89.89-18.2L89.89-18.2Q90.34-17.85 91.44-17.57 92.54-17.3 93.94-17.3L93.94-17.3Q96.79-17.3 98.84-18.5 100.89-19.7 101.97-21.75 103.04-23.8 103.04-26.35L103.04-26.35Q103.04-33 95.59-33L95.59-33Q93.59-33 91.97-32.55 90.34-32.1 90.09-31.1L90.09-31.1Q89.09-26.95 86.87-15.3 84.64-3.65 84.64-1.95L84.64-1.95Q84.64-1.5 84.69-1.03 84.74-0.55 84.74-0.15L84.74-0.15Q82.74 0.35 81.24 0.35L81.24 0.35ZM126.34 0.75Q119.39 0.75 115.47-3.23 111.54-7.2 111.54-14.65L111.54-14.65Q111.54-20.75 114.17-25.6 116.79-30.45 121.49-33.2 126.19-35.95 132.14-35.95L132.14-35.95Q139.09-35.95 143.02-32.08 146.94-28.2 146.94-20.85L146.94-20.85Q146.94-14.85 144.34-9.9 141.74-4.95 137.04-2.1 132.34 0.75 126.34 0.75L126.34 0.75ZM127.04-2Q131.74-2 135.06-4.55 138.39-7.1 140.06-11.3 141.74-15.5 141.74-20.4L141.74-20.4Q141.74-26.95 138.89-30.15 136.04-33.35 131.14-33.35L131.14-33.35Q126.69-33.35 123.39-30.83 120.09-28.3 118.34-24.03 116.59-19.75 116.59-14.6L116.59-14.6Q116.59-8.3 119.29-5.15 121.99-2 127.04-2L127.04-2ZM216.84 5.15Q217.29 5.45 217.49 5.73 217.69 6 217.69 6.55L217.69 6.55Q217.69 8 216.51 9.35 215.34 10.7 212.91 11.58 210.49 12.45 206.89 12.45L206.89 12.45Q198.99 12.45 191.21 8.22 183.44 4 176.81-2.73 170.19-9.45 164.99-17.25L164.99-17.25Q165.04-17.7 165.21-17.88 165.39-18.05 165.69-18.1L165.69-18.1Q170.09-18.55 172.79-19.23 175.49-19.9 177.16-21.43 178.84-22.95 178.84-25.7L178.84-25.7Q178.84-29.65 175.74-31.55 172.64-33.45 167.74-33.45L167.74-33.45Q166.64-33.45 166.09-33.25 165.54-33.05 165.39-32.4L165.39-32.4Q162.79-22.5 160.84-11.05L160.84-11.05 159.04-0.2Q157.79-0.3 156.06 0.33 154.34 0.95 153.94 1.65L153.94 1.65Q153.84 1.65 153.61 1.53 153.39 1.4 153.29 1.35L153.29 1.35Q155.04-5.45 157.74-18.1 160.44-30.75 160.44-32.55L160.44-32.55Q160.44-33 160.21-33.13 159.99-33.25 159.39-33.25L159.39-33.25Q157.24-33.25 155.46-32.13 153.69-31 152.69-29.15 151.69-27.3 151.69-25.15L151.69-25.15Q151.69-22.05 153.69-20.15L153.69-20.15Q153.04-20.15 151.71-20.38 150.39-20.6 149.69-20.85L149.69-20.85Q148.49-21.3 147.84-22.55 147.19-23.8 147.19-25.4L147.19-25.4Q147.19-28.65 149.76-30.98 152.34-33.3 156.64-34.48 160.94-35.65 165.99-35.65L165.99-35.65Q170.39-35.65 174.44-34.73 178.49-33.8 181.11-31.83 183.74-29.85 183.74-26.85L183.74-26.85Q183.74-24.3 181.86-22.15 179.99-20 176.96-18.55 173.94-17.1 170.64-16.5L170.64-16.5Q173.64-11.05 179.46-5.3 185.29 0.45 192.71 4.33 200.14 8.2 207.59 8.2L207.59 8.2Q210.99 8.2 213.36 7.38 215.74 6.55 216.84 5.15L216.84 5.15ZM190.09-14.55Q187.64-15.3 186.06-17.43 184.49-19.55 184.49-22.95L184.49-22.95Q184.49-26.95 186.74-29.93 188.99-32.9 192.94-34.5 196.89-36.1 201.89-36.1L201.89-36.1Q204.29-36.1 206.56-35.77 208.84-35.45 211.84-34.85L211.84-34.85Q213.64-34.5 215.44-34.23 217.24-33.95 218.54-33.95L218.54-33.95Q220.74-33.95 222.56-34.68 224.39-35.4 225.54-37L225.54-37Q225.34-33.55 223.24-31.58 221.14-29.6 217.34-29.6L217.34-29.6Q215.14-29.6 212.91-30.18 210.69-30.75 207.09-31.9L207.09-31.9Q204.09-32.95 202.03-33.48 199.99-34 198.19-34L198.19-34Q195.34-34 193.34-32.55 191.34-31.1 190.31-28.78 189.28-26.45 189.28-23.8L189.28-23.8Q189.28-20.85 190.71-18.8 192.14-16.75 195.34-15.2L195.34-15.2 195.14-14.95Q191.24-14.95 190.09-14.55L190.09-14.55ZM188.49 0.75Q186.24 0.75 184.28 0.33 182.34-0.1 181.09-0.65L181.09-0.65Q180.69-2.2 180.69-4.1L180.69-4.1 180.99-4.65Q184.24-1.15 188.74-1.15L188.74-1.15Q197.03-1.15 199.69-12.65L199.69-12.65Q201.99-22.5 203.24-27.45L203.24-27.45Q204.24-28.8 205.66-29.88 207.09-30.95 208.29-31.45L208.29-31.45 208.74-31.3Q207.84-29.4 207.09-26.28 206.34-23.15 205.14-17.35L205.14-17.35Q204.74-15.15 204.19-12.8L204.19-12.8Q202.44-5.7 198.31-2.48 194.19 0.75 188.49 0.75L188.49 0.75Z" opacity="1" transform="matrix(1,0,0,1,0,0)" fill="#ffffff" class="undefined-text-1" data-fill-palette-color="secondary" id="text-1"></path></svg></g></svg></g></svg></g></svg></g></svg></g></svg></g></svg></g></svg></g></svg><rect width="395.52" height="247.2" fill="none" stroke="none" visibility="hidden"></rect></g></svg></g></svg>