<svg xmlns="http://www.w3.org/2000/svg" version="1.1" xmlns:xlink="http://www.w3.org/1999/xlink" xmlns:svgjs="http://svgjs.dev/svgjs" width="1000" height="267" viewBox="0 0 1000 267"><g transform="matrix(1,0,0,1,-0.6060363361179952,-0.4530005063749343)"><svg viewBox="0 0 396 106" data-background-color="#ffffff" preserveAspectRatio="xMidYMid meet" height="267" width="1000" xmlns="http://www.w3.org/2000/svg" xmlns:xlink="http://www.w3.org/1999/xlink"><defs></defs><g id="tight-bounds" transform="matrix(1,0,0,1,0.24000961089737416,0.17984289766195616)"><svg viewBox="0 0 395.5199999999999 105.6403142046761" height="105.6403142046761" width="395.5199999999999"><g><svg viewBox="0 0 683.0184479325376 182.42891243725597" height="105.6403142046761" width="395.5199999999999"><g transform="matrix(1,0,0,1,287.4984479325376,0)"><svg viewBox="0 0 395.52 182.42891243725597" height="182.42891243725597" width="395.52"><g><svg viewBox="0 0 395.52 182.42891243725597" height="182.42891243725597" width="395.52"><g><svg viewBox="0 0 395.52 182.42891243725597" height="182.42891243725597" width="395.52"><g transform="matrix(1,0,0,1,0,0)"><svg width="395.52" viewBox="5.05 -37.3 89.65 41.349999999999994" height="182.42891243725597" data-palette-color="#e2012d"><path d="M37.65-33.7L37.65-33.7Q37.8-32.85 37.88-32.52 37.95-32.2 37.95-31.65L37.95-31.65Q37.95-30 37.23-28.58 36.5-27.15 35.25-26.55L35.25-26.55Q34.25-27.9 32.8-28.88 31.35-29.85 29.63-30.48 27.9-31.1 26.05-31.4 24.2-31.7 22.45-31.7L22.45-31.7Q20.7-31.7 19.18-31.43 17.65-31.15 16.48-30.68 15.3-30.2 14.63-29.5 13.95-28.8 13.95-27.9L13.95-27.9Q14.1-26.8 15.3-25.68 16.5-24.55 18.25-23.48 20-22.4 22.13-21.35 24.25-20.3 26.3-19.35L26.3-19.35Q28.85-18.15 30.7-17.13 32.55-16.1 33.75-14.88 34.95-13.65 35.55-12.1 36.15-10.55 36.15-8.35L36.15-8.35Q36.15-5.8 35.3-3.58 34.45-1.35 32.83 0.3 31.2 1.95 28.9 2.88 26.6 3.8 23.75 3.8L23.75 3.8Q20.95 3.8 17.7 2.95 14.45 2.1 11.63 0.63 8.8-0.85 6.93-2.78 5.05-4.7 5.05-6.85L5.05-6.85Q5.05-7.85 5.63-9.4 6.2-10.95 7.7-12.65L7.7-12.65Q7.85-11.15 9.33-9.1 10.8-7.05 13.75-5.3L13.75-5.3Q16.5-3.7 19.43-2.98 22.35-2.25 24.9-2.25L24.9-2.25Q27.7-2.25 29.45-2.95 31.2-3.65 32.2-4.63 33.2-5.6 33.6-6.6 34-7.6 34.05-8.2L34.05-8.2Q34-9.2 33.13-10.13 32.25-11.05 30.78-11.93 29.3-12.8 27.35-13.7 25.4-14.6 23.3-15.5L23.3-15.5Q20.15-16.9 17.88-18.13 15.6-19.35 14.13-20.63 12.65-21.9 11.98-23.3 11.3-24.7 11.3-26.5L11.3-26.5Q11.3-29.3 13-31.8 14.7-34.3 17.9-35.6L17.9-35.6Q19.5-36.3 21.33-36.6 23.15-36.9 24.9-36.9L24.9-36.9Q28.2-36.9 31.35-36 34.5-35.1 37.65-33.7ZM58.75-2.85L58.75-2.85Q60-0.7 60 1.3L60 1.3Q60 1.75 59.92 2.13 59.85 2.5 59.75 2.9L59.75 2.9Q58.9 2.8 57.97 2.75 57.05 2.7 56.05 2.7L56.05 2.7Q54.85 2.7 53.62 2.78 52.4 2.85 50.9 3 49.4 3.15 47.55 3.4 45.7 3.65 43.25 4.05L43.25 4.05Q42.1 3.65 40.95 2.48 39.8 1.3 38.8-0.35L38.8-0.35Q39.3-1.45 40.05-3.08 40.8-4.7 41.8-7.03 42.8-9.35 44.02-12.48 45.25-15.6 46.65-19.7L46.65-19.7Q47.55-22.4 48.2-24.45 48.85-26.5 49.37-28.43 49.9-30.35 50.4-32.45 50.9-34.55 51.5-37.3L51.5-37.3Q53.5-36.9 54.97-35.83 56.45-34.75 57.8-32.75L57.8-32.75Q57.4-32.1 56.75-30.65 56.1-29.2 55.22-27.13 54.35-25.05 53.3-22.43 52.25-19.8 51.1-16.8L51.1-16.8Q50-13.85 48.95-11.25 47.9-8.65 47.07-6.55 46.25-4.45 45.75-2.95 45.25-1.45 45.25-0.7L45.25-0.7Q46.05-0.75 46.7-0.8 47.35-0.85 48.05-0.98 48.75-1.1 49.57-1.28 50.4-1.45 51.55-1.75L51.55-1.75Q52.55-2 53.4-2.18 54.25-2.35 55.07-2.48 55.9-2.6 56.77-2.68 57.65-2.75 58.75-2.85ZM90.45-15.9L90.45-15.9Q91.75-15.9 92.5-15 93.25-14.1 93.25-12.5L93.25-12.5Q93.25-12.1 93.2-11.68 93.15-11.25 93.05-10.95L93.05-10.95Q92-11.2 90.75-11.25L90.75-11.25Q90.45-9.05 89.15-6.63 87.85-4.2 86-2.08 84.15 0.05 81.95 1.65 79.75 3.25 77.6 3.8L77.6 3.8Q70.9 3.65 67.82 0.33 64.75-3 64.75-10.05L64.75-10.05Q64.75-15.2 66.65-20.03 68.55-24.85 71.7-28.6 74.85-32.35 78.92-34.63 83-36.9 87.4-36.9L87.4-36.9Q90.84-36.9 92.77-35.45 94.7-34 94.7-31.35L94.7-31.35Q94.7-29.6 93.87-28.1 93.05-26.6 91.15-24.85L91.15-24.85Q90-25.2 89.15-26.08 88.3-26.95 88.1-28.1L88.1-28.1Q89.8-29.35 90.5-30.4 91.2-31.45 91.2-32.9L91.2-32.9Q91.2-35.2 88.45-35.2L88.45-35.2Q86.2-35.2 83.62-33.52 81.05-31.85 78.45-28.7L78.45-28.7Q74.75-24.25 73.05-19.53 71.35-14.8 71.35-8.9L71.35-8.9Q71.35-6.7 71.8-4.9 72.25-3.1 73-1.75 73.75-0.4 74.77 0.4 75.8 1.2 77 1.3L77 1.3Q78.6 0.95 80.2-0.33 81.8-1.6 83.12-3.33 84.45-5.05 85.37-7.03 86.3-9 86.5-10.8L86.5-10.8Q85.1-10.5 83.82-10.23 82.55-9.95 81.4-9.95L81.4-9.95Q79.9-9.95 78.77-10.7 77.65-11.45 77.25-12.75L77.25-12.75Q78.15-13.25 79.87-13.8 81.6-14.35 83.55-14.83 85.5-15.3 87.37-15.6 89.25-15.9 90.45-15.9Z" opacity="1" transform="matrix(1,0,0,1,0,0)" fill="#e2012d" class="undefined-text-0" data-fill-palette-color="primary" id="text-0"></path></svg></g></svg></g></svg></g></svg></g><g transform="matrix(1,0,0,1,0,29.95555648593961)"><svg viewBox="0 0 244.43135999999998 122.51779946537675" height="122.51779946537675" width="244.43135999999998"><g><svg xmlns="http://www.w3.org/2000/svg" xmlns:xlink="http://www.w3.org/1999/xlink" xml:space="preserve" style="shape-rendering:geometricPrecision;text-rendering:geometricPrecision;image-rendering:optimizeQuality;" viewBox="0.0000020000000000575113 0.0000027841116459863258 14.727499 7.381952827609914" x="0" y="0" fill-rule="evenodd" clip-rule="evenodd" width="244.43135999999998" height="122.51779946537675" class="icon-icon-0" data-fill-palette-color="accent" id="icon-0"><g fill="#e2012d" data-fill-palette-color="accent"><path class="" d="M1.757 3.091c-0.313 0.444-0.296 1.331-0.417 1.95-0.153 0.784-0.711 1.203-1.34 1.534 0.188-0.771 0.348-1.542 0.412-2.313 0.078-0.953-0.06-0.891 0.767-1.575 1.159-0.961 3.04-1.741 5.848-2.29 2.456-0.406 5.049-0.453 7.701-0.351-0.89 1.809-3.733 1.961-7.203 1.581-1.811 0.02-3.495-0.488-5.768 1.464z m8.33 2.781c-3.895 2.038-7.803-2.284-9.165 0.688 2.104-1.831 5.079 3.183 9.165-0.688z m2.489-2.547c-4.49 2.72-9.502-0.792-10.907 1.859 3.412-1.235 7.765 2.753 10.907-1.859z m0.834-1.478c-3.944 1.761-10.043-1.402-11.565 2.239 3.106-1.808 8.446 1.438 11.565-2.239z" fill="#e2012d" data-fill-palette-color="accent"></path></g></svg></g></svg></g></svg></g></svg><rect width="395.5199999999999" height="105.6403142046761" fill="none" stroke="none" visibility="hidden"></rect></g></svg></g></svg>