<?xml version="1.0" standalone="no"?>
<!DOCTYPE svg PUBLIC "-//W3C//DTD SVG 20010904//EN"
 "http://www.w3.org/TR/2001/REC-SVG-20010904/DTD/svg10.dtd">
<svg version="1.0" xmlns="http://www.w3.org/2000/svg"
 width="2309.000000pt" height="1395.000000pt" viewBox="0 0 2309.000000 1395.000000"
 preserveAspectRatio="xMidYMid meet">

<g transform="translate(0.000000,1395.000000) scale(0.100000,-0.100000)"
fill="#000000" stroke="none">
<path d="M0 6975 l0 -6975 11545 0 11545 0 0 6975 0 6975 -11545 0 -11545 0 0
-6975z m20168 5414 c663 -9 1634 -35 2080 -55 l142 -7 -47 -86 c-170 -315
-353 -566 -588 -809 -757 -784 -1934 -1292 -3540 -1526 -287 -42 -703 -89
-716 -81 -5 4 -9 484 -9 1231 l0 1224 -1087 1 c-599 1 -1081 3 -1073 5 8 2
139 10 290 19 1425 79 2899 107 4548 84z m-10293 -824 c122 -10 262 -49 462
-127 118 -45 118 -46 118 -163 -1 -95 -27 -167 -83 -227 -25 -26 -49 -48 -55
-48 -5 0 -40 29 -78 65 -155 146 -419 225 -704 212 -245 -11 -415 -94 -415
-200 0 -46 41 -107 111 -163 112 -90 200 -139 630 -348 343 -166 441 -261 485
-466 18 -86 14 -214 -12 -313 -45 -179 -174 -339 -334 -415 -111 -52 -202 -72
-338 -72 -386 0 -861 212 -1002 446 -33 55 -35 63 -35 149 0 81 3 97 33 160
31 66 90 154 103 155 4 0 12 -20 19 -45 17 -61 100 -184 158 -235 104 -93 253
-177 398 -226 177 -59 419 -81 565 -50 136 29 258 114 303 210 38 82 41 110
16 162 -42 86 -160 161 -484 307 -398 178 -536 256 -644 363 -88 87 -115 150
-120 276 -5 119 17 202 78 297 63 97 131 156 245 212 112 54 198 77 330 89 88
7 108 7 250 -5z m1441 -19 c80 -38 174 -120 229 -201 l38 -55 -27 -48 c-71
-122 -404 -861 -500 -1110 -96 -246 -185 -545 -226 -757 -19 -102 -15 -96 -63
-79 -70 25 -123 61 -179 123 -85 94 -86 99 -54 178 211 519 497 1263 539 1403
29 95 94 387 121 543 9 48 28 48 122 3z m1186 -12 c66 -46 147 -175 148 -234
0 -22 -8 -28 -67 -48 -107 -37 -319 -145 -428 -218 -258 -172 -513 -418 -672
-647 -32 -47 -32 -49 67 -252 140 -286 306 -515 468 -646 l44 -35 -41 -40
c-95 -95 -254 -142 -327 -96 -110 70 -209 281 -375 797 l-89 280 72 105 c193
283 397 537 588 734 195 201 342 307 460 331 64 14 97 7 152 -31z m688 -11 c1
-202 130 -786 218 -986 l25 -58 30 28 c51 49 219 264 303 388 105 155 178 282
276 480 44 88 83 161 88 163 16 6 123 -29 165 -53 88 -52 95 -30 -76 -236
-294 -354 -494 -612 -652 -840 -63 -90 -69 -106 -106 -240 -83 -305 -143 -598
-157 -771 l-7 -88 -35 0 c-62 0 -392 81 -392 96 0 3 18 42 39 87 50 106 142
360 222 612 l63 200 -98 290 c-146 436 -280 758 -360 864 -14 19 -23 38 -19
42 19 17 321 66 421 68 l52 1 0 -47z m-7622 -1719 l-3 -446 -250 -127 c-658
-333 -1230 -714 -1886 -1256 -180 -150 -201 -175 -289 -360 -171 -356 -250
-748 -375 -1850 -63 -552 -113 -846 -180 -1070 -227 -753 -726 -1318 -1620
-1835 -185 -107 -275 -153 -282 -146 -3 3 20 110 51 238 289 1212 462 2201
541 3088 8 96 26 351 40 565 13 215 29 428 35 475 28 227 94 402 211 561 149
204 678 673 1192 1060 701 527 1569 1015 2587 1455 118 51 218 93 223 93 4 1
6 -200 5 -445z m14856 -156 c-631 -718 -1197 -1191 -1929 -1613 -263 -152
-820 -418 -982 -469 l-23 -7 0 680 c0 414 4 681 9 681 21 0 336 42 496 66 673
101 1335 264 1893 466 179 65 485 187 522 209 27 16 34 9 14 -13z m-13481
-573 c63 -29 158 -112 201 -173 l27 -40 -24 -49 c-42 -82 -170 -387 -272 -648
-54 -137 -155 -396 -225 -575 -123 -311 -180 -473 -180 -507 0 -25 128 -7 400
57 75 17 296 50 341 50 39 0 94 -191 80 -275 l-6 -40 -200 -1 c-198 -1 -345
-14 -605 -54 -123 -18 -124 -18 -163 2 -50 25 -124 98 -172 171 l-37 56 87
193 c245 543 466 1185 577 1676 l43 194 36 -5 c19 -2 61 -17 92 -32z m2371
-36 c39 -43 86 -149 86 -192 0 -16 -5 -17 -32 -12 -72 16 -391 8 -558 -14 -91
-12 -168 -25 -172 -29 -13 -14 -131 -257 -208 -428 l-80 -177 53 7 c339 46
424 34 475 -64 19 -37 23 -57 20 -112 -2 -37 -6 -69 -8 -71 -3 -2 -41 0 -85 5
-44 4 -120 6 -170 2 -91 -6 -404 -50 -412 -57 -10 -11 -138 -335 -184 -466
-46 -134 -113 -380 -105 -388 1 -2 45 5 97 16 211 43 528 87 764 107 l80 6 22
-39 c27 -48 53 -144 53 -194 0 -74 22 -69 -319 -69 -314 0 -442 -9 -692 -49
l-124 -20 -40 23 c-46 27 -139 122 -179 182 l-27 41 55 125 c58 134 141 336
231 568 31 80 59 150 61 155 2 6 -16 18 -41 28 -46 20 -115 86 -115 113 0 18
40 36 153 66 l87 23 31 80 c52 135 110 314 140 430 31 123 35 112 -48 134
-104 28 -154 121 -123 231 l10 35 282 1 c261 0 512 15 743 44 39 4 108 8 154
7 l83 -2 42 -46z m1452 37 c174 -46 251 -149 242 -320 -6 -103 -42 -179 -131
-272 l-62 -66 -36 14 c-45 20 -98 72 -120 122 l-18 40 69 66 c77 74 101 121
102 201 1 64 -12 93 -50 113 -129 66 -341 -17 -538 -212 -197 -195 -357 -445
-434 -683 -55 -168 -74 -300 -75 -519 0 -175 2 -203 23 -275 47 -162 127 -272
225 -310 59 -22 96 -15 175 33 124 75 253 223 337 387 39 78 84 219 72 231 -2
3 -46 -4 -98 -16 -112 -24 -235 -26 -287 -4 -56 23 -122 94 -122 132 0 44 520
174 702 176 94 1 97 0 128 -29 18 -16 39 -44 46 -62 15 -34 19 -150 6 -169 -5
-8 -25 -9 -67 -3 -33 4 -60 7 -60 6 0 -1 -8 -33 -18 -71 -67 -266 -345 -597
-612 -728 l-80 -40 -105 6 c-127 6 -209 26 -315 76 -178 85 -281 247 -316 499
-15 109 -6 390 16 491 130 591 562 1077 1055 1186 77 17 283 17 346 0z m2034
-33 c44 -45 74 -105 94 -186 l7 -29 -43 8 c-24 4 -122 7 -218 7 -190 -1 -497
-34 -513 -56 -34 -47 -283 -585 -274 -593 2 -3 57 2 121 11 287 37 386 8 415
-126 8 -38 2 -123 -10 -133 -2 -2 -38 1 -79 6 -113 13 -254 1 -556 -47 -31 -5
-34 -10 -112 -208 -117 -296 -221 -632 -201 -651 2 -2 72 9 156 25 197 37 390
65 582 84 218 21 197 26 233 -52 25 -54 33 -84 36 -150 l5 -83 -309 0 c-320 0
-465 -10 -703 -49 l-125 -21 -47 31 c-53 34 -120 102 -167 170 l-31 46 46 104
c87 199 307 749 301 754 -2 1 -19 8 -38 16 -41 16 -120 91 -120 114 0 20 40
37 154 67 l89 23 28 75 c76 195 176 531 164 550 -2 4 -23 10 -45 13 -99 13
-169 102 -156 199 11 82 -2 77 179 71 177 -6 481 8 762 37 99 9 213 18 254 19
l74 1 47 -47z m835 5 c94 -32 219 -89 246 -114 14 -12 14 -23 5 -72 -16 -85
-14 -854 2 -1027 23 -245 96 -612 113 -569 5 10 24 96 44 189 87 407 181 755
294 1095 102 302 179 466 237 505 24 16 28 15 88 -13 58 -27 176 -129 176
-151 0 -5 -16 -19 -35 -31 -172 -106 -382 -579 -550 -1237 -73 -284 -135 -636
-135 -762 l0 -44 -97 6 c-145 10 -262 53 -291 109 -26 50 -98 392 -142 676
-43 281 -90 810 -90 1018 0 46 -4 85 -9 89 -23 13 -170 -335 -261 -617 -148
-461 -228 -835 -237 -1115 -3 -90 -7 -163 -9 -163 -2 0 -42 14 -89 31 -105 38
-159 84 -171 144 -15 81 56 372 172 700 146 414 389 963 524 1185 58 95 56 85
45 159 l-7 53 43 -7 c24 -4 85 -21 134 -37z m2322 23 c399 -78 674 -328 754
-686 22 -95 16 -338 -10 -462 -60 -284 -196 -537 -396 -738 -149 -150 -310
-253 -490 -313 -131 -44 -222 -55 -382 -50 -112 4 -153 10 -218 31 -149 49
-267 139 -338 259 -35 60 -36 61 -20 97 175 407 638 1650 620 1668 -10 10
-128 -60 -194 -116 -115 -96 -217 -253 -268 -408 -18 -57 -27 -62 -65 -36 -73
48 -140 143 -140 199 0 81 101 258 198 344 112 101 288 183 460 214 119 21
371 20 489 -3z m-10387 -1229 l0 -729 -72 -12 c-748 -131 -1400 -347 -1951
-648 -76 -41 -141 -73 -143 -70 -8 8 128 296 204 435 392 711 946 1248 1666
1614 114 58 282 136 294 138 1 0 2 -328 2 -728z m13634 -364 c-18 -31 -206
-294 -288 -403 -279 -371 -529 -659 -856 -985 -216 -217 -540 -510 -562 -510
-5 0 -7 241 -6 536 l3 535 190 78 c431 176 935 421 1305 635 118 69 216 125
218 125 2 1 0 -5 -4 -11z m-11473 -897 c79 -30 133 -72 166 -128 26 -44 28
-56 28 -153 0 -95 -3 -111 -28 -162 -16 -32 -58 -90 -95 -129 l-67 -71 -35 15
c-46 19 -99 72 -121 122 l-18 40 64 57 c77 71 107 127 108 206 0 66 -13 96
-51 116 -98 49 -253 12 -406 -98 -70 -51 -202 -181 -277 -276 -165 -206 -282
-446 -329 -675 -47 -227 -51 -499 -10 -645 58 -202 187 -338 302 -316 138 26
360 257 454 474 33 77 62 178 52 187 -2 3 -47 -5 -99 -16 -171 -38 -284 -26
-352 39 -29 27 -57 72 -57 90 0 32 356 133 585 167 137 20 180 19 226 -7 57
-32 81 -87 77 -180 l-3 -73 -40 4 c-94 8 -86 12 -106 -62 -79 -284 -385 -640
-640 -743 -158 -64 -470 11 -606 145 -133 131 -193 318 -193 601 0 245 52 466
164 695 201 410 552 713 916 790 102 22 319 14 391 -14z m1704 -8 c82 -30 190
-83 224 -110 l24 -20 -51 -119 c-194 -456 -323 -1215 -311 -1817 l4 -167 -40
0 c-82 0 -244 57 -292 102 -22 21 -23 28 -23 182 0 188 13 390 36 569 9 70 15
130 12 132 -4 4 -301 20 -510 28 l-77 2 -40 -75 c-145 -274 -248 -570 -287
-831 -8 -57 -17 -105 -19 -107 -2 -2 -28 4 -57 13 -115 37 -178 94 -178 160 0
37 28 136 65 230 33 84 195 417 259 532 l45 81 -110 7 -110 8 21 23 c29 30
106 62 201 82 l78 17 89 135 c260 394 549 707 810 877 67 44 82 59 82 80 0 24
2 24 43 18 23 -4 74 -19 112 -32z m1599 -4 c80 -29 200 -90 225 -114 12 -11
10 -24 -14 -82 -72 -178 -156 -457 -235 -778 -49 -198 -114 -537 -108 -556 2
-5 16 21 32 58 41 98 182 369 272 525 234 404 498 776 659 926 66 62 68 63
109 56 97 -16 325 -117 349 -155 7 -11 -1 -37 -28 -95 -138 -290 -251 -792
-306 -1364 -7 -69 -13 -243 -13 -387 -1 -302 12 -273 -113 -247 -99 20 -194
59 -223 89 l-23 25 6 242 c11 425 54 735 168 1198 45 183 79 332 79 346 0 15
-70 -40 -139 -110 -146 -149 -296 -375 -446 -671 -178 -351 -322 -764 -355
-1017 -7 -51 -14 -99 -16 -107 -11 -35 -228 18 -316 77 l-38 25 0 196 c0 395
57 823 166 1251 48 187 77 321 70 327 -28 28 -312 -360 -481 -656 -238 -417
-430 -905 -460 -1169 l-7 -63 -32 7 c-59 12 -151 61 -179 93 -64 76 -13 240
213 686 398 784 746 1303 975 1453 58 39 81 38 209 -9z m3036 21 c100 -28 166
-53 248 -94 88 -45 92 -49 81 -111 -17 -87 -23 -657 -10 -872 18 -284 56 -541
105 -703 l14 -45 10 40 c6 22 16 67 22 100 123 630 387 1476 509 1631 45 58
55 60 127 24 61 -30 174 -127 174 -150 0 -5 -20 -23 -45 -40 -177 -122 -386
-607 -555 -1288 -65 -264 -120 -584 -120 -704 l0 -38 -67 0 c-131 1 -284 51
-319 105 -19 30 -88 350 -128 596 -54 329 -90 685 -102 1022 -4 97 -10 177
-14 177 -9 0 -90 -165 -135 -274 -96 -234 -246 -733 -305 -1021 -36 -173 -60
-366 -60 -487 0 -65 -4 -118 -9 -118 -27 0 -172 64 -203 91 -67 55 -71 120
-17 339 111 456 433 1246 670 1645 45 76 47 82 39 125 -16 82 -21 80 90 50z
m2683 -9 c80 -31 136 -77 166 -136 23 -44 26 -62 26 -150 0 -93 -2 -104 -33
-162 -33 -64 -145 -193 -167 -193 -32 0 -111 69 -138 120 l-28 54 63 56 c78
71 109 129 110 208 1 67 -12 96 -50 115 -97 50 -253 12 -406 -97 -184 -131
-413 -426 -517 -667 -89 -205 -122 -382 -123 -649 -1 -175 1 -203 22 -275 61
-208 188 -343 304 -321 132 25 340 235 443 451 34 70 73 200 63 210 -2 3 -47
-4 -99 -16 -172 -38 -285 -25 -352 39 -29 27 -57 72 -57 90 0 36 413 148 640
174 121 13 147 9 195 -33 43 -38 57 -84 53 -169 l-3 -65 -35 3 c-19 1 -49 5
-65 7 -30 5 -31 4 -43 -52 -54 -258 -338 -604 -612 -745 -63 -32 -69 -33 -180
-32 -87 0 -134 6 -195 23 -333 94 -469 334 -452 803 10 289 87 530 252 797
187 301 505 552 781 615 38 8 78 18 89 20 11 3 81 4 155 2 112 -2 145 -7 193
-25z m-3523 -86 c76 -39 149 -90 156 -110 4 -9 -12 -35 -37 -63 -154 -172
-355 -667 -499 -1227 -74 -287 -120 -560 -120 -704 l0 -69 -33 7 c-48 11 -73
27 -98 63 -13 18 -39 49 -60 68 -84 79 -98 273 -40 550 110 525 410 1322 566
1508 24 28 28 30 63 20 20 -6 66 -25 102 -43z m-7660 -803 l0 -569 -297 -6
c-320 -7 -465 -16 -748 -48 -438 -49 -905 -151 -1277 -279 -60 -21 -108 -35
-108 -32 0 9 73 136 125 218 390 605 954 992 1727 1183 171 43 476 99 541 100
l37 1 0 -568z m-840 -1382 c244 -17 603 -63 788 -101 l52 -10 0 -641 c0 -606
-1 -640 -17 -633 -10 4 -121 43 -248 86 -877 298 -1511 386 -2086 288 -132
-22 -318 -72 -427 -115 -218 -85 -487 -241 -667 -387 -44 -36 -82 -63 -84 -62
-6 7 154 309 220 413 228 367 529 668 848 851 436 250 985 355 1621 311z
m10035 -766 c-47 -124 -199 -164 -395 -104 -36 11 -68 20 -72 20 -15 0 -48
-117 -92 -325 -67 -313 -93 -383 -176 -477 -69 -78 -212 -137 -334 -138 l-41
-1 55 -35 c171 -112 364 -174 539 -174 120 0 186 15 246 56 36 24 40 25 51 9
23 -31 -8 -97 -62 -134 -54 -37 -113 -54 -212 -59 -322 -16 -668 166 -993 523
-102 112 -269 330 -269 351 0 15 12 19 124 35 104 14 160 32 206 64 48 33 70
78 70 144 0 92 -41 150 -135 192 -63 28 -224 40 -242 18 -23 -30 -113 -448
-169 -790 l-27 -167 -39 -6 c-22 -4 -58 -16 -80 -27 -22 -11 -42 -18 -45 -15
-3 2 9 65 26 138 103 442 174 800 169 844 -3 27 -5 29 -46 27 -151 -7 -251
-206 -172 -340 11 -19 20 -36 20 -37 0 -6 -105 16 -123 26 -52 27 -74 138 -43
212 49 117 236 200 476 213 191 10 358 -22 470 -89 203 -122 111 -351 -178
-444 -48 -15 -88 -29 -90 -30 -5 -3 47 -83 97 -149 65 -85 182 -206 192 -199
5 3 28 -11 51 -31 105 -89 274 -86 372 9 73 72 100 138 171 433 71 290 70 288
159 348 l48 33 -93 30 c-173 55 -254 54 -336 -2 -94 -64 -143 -213 -109 -330
19 -64 50 -104 111 -143 25 -15 45 -31 45 -34 0 -4 -35 -9 -77 -12 -72 -5 -81
-3 -123 22 -27 16 -57 46 -75 75 -28 46 -30 57 -30 140 0 78 4 99 27 148 71
152 244 238 476 238 71 0 162 -10 286 -31 130 -22 197 -29 239 -25 60 6 123
33 148 62 13 16 14 16 17 -1 2 -9 -4 -37 -13 -61z m-2542 27 c77 -27 139 -73
182 -135 52 -77 67 -128 72 -252 6 -128 -14 -230 -69 -342 -44 -92 -168 -216
-259 -259 -74 -36 -193 -63 -271 -63 -66 0 -175 23 -220 46 -164 84 -243 278
-208 509 41 268 207 451 465 511 82 19 233 12 308 -15z m-1583 9 c353 10 492
6 544 -14 113 -44 165 -133 152 -265 -16 -171 -143 -299 -330 -332 -122 -21
-216 5 -216 59 0 39 17 54 44 39 12 -6 55 -11 96 -11 93 0 159 30 207 92 38
50 53 98 53 171 0 140 -100 208 -275 186 -96 -12 -93 -6 -163 -365 -78 -398
-92 -481 -92 -541 0 -51 0 -52 -72 -64 -20 -4 -46 -4 -58 0 -21 7 -22 11 -17
74 3 36 42 235 86 443 45 207 81 388 81 403 l0 28 -57 -7 c-164 -18 -183 -19
-198 -6 -18 15 -19 32 -4 83 9 34 12 37 37 30 15 -5 97 -6 182 -3z m-1456 -20
c6 -7 -27 -127 -42 -150 -2 -2 -13 8 -25 23 -20 24 -32 28 -147 41 -69 8 -166
18 -216 21 -107 8 -114 4 -138 -78 -23 -82 -66 -254 -66 -268 0 -9 53 -10 218
-6 119 4 232 9 250 13 25 5 31 3 28 -7 -3 -8 -10 -33 -16 -56 l-11 -43 -247
-2 -247 -3 -22 -115 c-30 -153 -39 -251 -24 -277 24 -46 181 -53 371 -17 106
20 161 40 216 79 26 19 49 33 50 32 8 -8 -37 -143 -53 -158 -40 -40 -374 -77
-542 -60 -141 15 -182 45 -189 139 -4 56 13 170 45 306 15 64 15 69 -1 78 -23
13 -20 32 13 66 23 25 33 54 55 154 15 68 28 143 29 168 l2 45 -70 0 c-38 0
-83 -4 -99 -8 l-29 -8 6 46 c4 26 9 50 11 54 7 10 879 1 890 -9z m1117 -9 c92
-35 94 -40 51 -149 -30 -76 -40 -92 -58 -92 -20 0 -21 4 -17 68 5 62 4 69 -21
94 -33 32 -111 53 -171 44 -49 -8 -98 -38 -128 -78 -22 -29 -34 -118 -23 -162
10 -42 61 -91 166 -161 150 -100 192 -152 206 -252 11 -84 -17 -157 -84 -224
-87 -86 -142 -104 -312 -104 -116 1 -143 4 -191 23 -90 36 -93 42 -79 164 13
115 14 118 39 118 14 0 19 -11 24 -49 7 -62 38 -123 74 -149 103 -72 256 -46
328 56 27 40 30 51 30 122 0 100 -6 108 -161 226 -165 125 -210 203 -184 321
22 96 83 156 197 194 79 26 233 21 314 -10z m1488 -1926 c-10 -9 -300 -56
-469 -75 -542 -61 -1066 -51 -1630 30 -339 49 -373 48 914 49 654 0 1187 -1
1185 -4z"/>
<path d="M15705 8944 c-11 -2 -44 -9 -74 -15 -59 -12 -57 -18 9 -43 48 -18
225 -121 234 -135 3 -5 -10 -35 -30 -67 -51 -85 -281 -545 -360 -720 -178
-397 -297 -713 -310 -827 l-7 -55 49 -9 c93 -16 292 -8 384 16 408 103 748
480 856 949 33 145 43 356 20 462 -45 213 -195 364 -421 426 -58 15 -305 29
-350 18z"/>
<path d="M9165 6239 c-100 -54 -262 -209 -401 -384 -95 -120 -228 -314 -221
-322 10 -9 512 19 518 29 3 5 14 49 23 96 10 48 41 188 71 312 66 278 69 290
58 290 -4 0 -26 -10 -48 -21z"/>
<path d="M11897 3501 c-132 -44 -245 -181 -281 -343 -50 -221 -14 -414 92
-495 54 -41 108 -56 202 -55 221 1 377 173 411 453 25 210 -39 374 -171 432
-65 29 -178 33 -253 8z"/>
</g>
</svg>
